<svg width="555" height="482" viewBox="0 0 555 482" fill="none" xmlns="http://www.w3.org/2000/svg">
<rect width="555" height="482" fill="#1F1B1B"/>
<rect width="555" height="482" fill="#1F1B1B"/>
<path d="M305.734 208.308L302.13 211.774L302.164 211.809L302.199 211.844L305.734 208.308ZM302.22 172.967L298.685 176.502L305.756 183.574L309.291 180.038L302.22 172.967ZM217.033 116.049L212.033 116.046L212.031 118.061L213.428 119.514L217.033 116.049ZM217.054 84.2432L220.695 80.8167L212.062 71.6428L212.054 84.2399L217.054 84.2432ZM273.812 144.559L270.171 147.985L270.25 148.069L270.333 148.15L273.812 144.559ZM291.71 161.901L288.231 165.491L291.767 168.918L295.247 165.435L291.71 161.901ZM337.519 116.049L341.056 119.583L342.518 118.12L342.519 116.052L337.519 116.049ZM217.043 100.146L212.043 100.143L212.043 100.143L217.043 100.146ZM337.53 100.146L332.53 100.143V100.143L337.53 100.146ZM337.54 84.2433L342.54 84.2466L342.548 72.1642L334.005 80.7077L337.54 84.2433ZM288.174 126.538L284.639 130.074L291.71 137.145L295.245 133.609L288.174 126.538ZM245.303 180.017L248.838 183.552L255.909 176.481L252.374 172.946L245.303 180.017ZM269.222 194.953L272.757 191.418L265.686 184.347L262.151 187.882L269.222 194.953ZM228.373 214.428L227.372 219.327L227.372 219.327L228.373 214.428ZM253.555 229.281C255.87 227.775 256.526 224.678 255.021 222.363C253.515 220.048 250.418 219.392 248.103 220.898L253.555 229.281ZM334.005 204.751C327.164 211.592 316.09 211.593 309.27 204.773L302.199 211.844C312.933 222.578 330.339 222.559 341.076 211.823L334.005 204.751ZM309.291 180.038C316.132 173.197 327.206 173.197 334.026 180.017L341.097 172.946C330.363 162.211 312.957 162.23 302.22 172.967L309.291 180.038ZM334.026 180.017C340.846 186.837 340.845 197.911 334.005 204.751L341.076 211.823C351.813 201.086 351.831 183.68 341.097 172.946L334.026 180.017ZM309.339 204.843L220.637 112.584L213.428 119.514L302.13 211.774L309.339 204.843ZM213.412 87.6697L270.171 147.985L277.453 141.132L220.695 80.8167L213.412 87.6697ZM270.333 148.15L288.231 165.491L295.189 158.31L277.291 140.968L270.333 148.15ZM295.247 165.435L341.056 119.583L333.982 112.515L288.173 158.367L295.247 165.435ZM222.033 116.052L222.043 100.149L212.043 100.143L212.033 116.046L222.033 116.052ZM222.043 100.15L222.054 84.2466L212.054 84.2399L212.043 100.143L222.043 100.15ZM342.519 116.052L342.53 100.149L332.53 100.143L332.519 116.046L342.519 116.052ZM342.53 100.149L342.54 84.2466L332.54 84.2399L332.53 100.143L342.53 100.149ZM334.005 80.7077L288.174 126.538L295.245 133.609L341.076 87.7788L334.005 80.7077ZM252.374 172.946C241.64 162.212 224.234 162.23 213.497 172.967L220.568 180.038C227.409 173.197 238.483 173.197 245.303 180.017L252.374 172.946ZM213.497 172.967C202.76 183.704 202.742 201.11 213.476 211.844L220.547 204.773C213.727 197.953 213.727 186.879 220.568 180.038L213.497 172.967ZM252.353 211.823L269.222 194.953L262.151 187.882L245.282 204.752L252.353 211.823ZM213.476 211.844C217.419 215.787 222.278 218.286 227.372 219.327L229.374 209.529C226.14 208.868 223.062 207.287 220.547 204.773L213.476 211.844ZM227.372 219.327C231.655 220.202 236.105 220.048 240.332 218.864L237.636 209.235C234.944 209.988 232.104 210.087 229.374 209.529L227.372 219.327ZM240.332 218.864C244.738 217.63 248.897 215.278 252.353 211.823L245.282 204.752C243.071 206.962 240.431 208.452 237.636 209.235L240.332 218.864ZM235.201 210.78C233.902 212.282 233.509 214.034 233.459 215.41C233.409 216.783 233.68 218.095 234.042 219.214C234.766 221.454 236.108 223.701 237.729 225.571C239.336 227.423 241.533 229.265 244.185 230.242C247.003 231.28 250.408 231.328 253.555 229.281L248.103 220.898C248.069 220.92 248.064 221.014 247.641 220.858C247.054 220.642 246.18 220.052 245.283 219.018C244.401 218.001 243.806 216.908 243.557 216.138C243.432 215.752 243.457 215.642 243.453 215.773C243.448 215.907 243.39 216.598 242.767 217.319L235.201 210.78Z" fill="white"/>
<path d="M277 243.246C272.88 240.141 261.991 239.676 255.811 245.604C245.216 258.446 235.799 255.623 228 245.604C228 264.909 232.12 271.711 240.066 272.558C253.309 275.098 266.7 265.925 271.997 264.514C273.332 264.158 275.381 263.988 277 263.988C278.619 263.988 280.668 264.158 282.003 264.514C287.3 265.925 300.691 275.098 313.934 272.558C321.88 271.711 326 264.909 326 245.604C318.201 255.623 308.784 258.446 298.189 245.604C292.009 239.676 281.12 240.141 277 243.246Z" fill="#C32121"/>
<path d="M339.5 255.107C372.831 234.254 395 197.216 395 155C395 89.8304 342.17 37 277 37C211.83 37 159 89.8304 159 155C159 197.216 181.169 234.254 214.5 255.107" stroke="#C42121" stroke-width="8"/>
<rect x="305.17" y="319" width="8.72629" height="8.72629" transform="rotate(45 305.17 319)" fill="white"/>
<text fill="white" xml:space="preserve" style="white-space: pre" font-family="Grewmoon Demo" font-size="84" letter-spacing="0.09em"><tspan x="38" y="352">PRENTICE STREET</tspan></text>
<text fill="#C32121" xml:space="preserve" style="white-space: pre" font-family="Grewmoon Demo" font-size="58" letter-spacing="0.39em"><tspan x="142" y="416.5">BARBERS</tspan></text>
<path d="M516 398.5L430 403V394L516 398.5Z" fill="#C32121"/>
<path d="M38 398.5L124 394V403L38 398.5Z" fill="#C32121"/>
</svg>
