<svg width="478" height="409" viewBox="0 0 478 409" fill="none" xmlns="http://www.w3.org/2000/svg">
<path d="M267.734 184.308L264.13 187.774L264.164 187.809L264.199 187.844L267.734 184.308ZM264.22 148.967L260.685 152.502L267.756 159.574L271.291 156.038L264.22 148.967ZM179.033 92.0491L174.033 92.0457L174.031 94.0614L175.428 95.5144L179.033 92.0491ZM179.054 60.2432L182.695 56.8167L174.062 47.6428L174.054 60.2399L179.054 60.2432ZM235.812 120.559L232.171 123.985L232.25 124.069L232.333 124.15L235.812 120.559ZM253.71 137.901L250.231 141.492L253.767 144.918L257.247 141.435L253.71 137.901ZM299.519 92.0488L303.056 95.5827L304.518 94.1199L304.519 92.0521L299.519 92.0488ZM179.043 76.1462L174.043 76.1428L174.043 76.1429L179.043 76.1462ZM299.53 76.1462L294.53 76.1428L294.53 76.1429L299.53 76.1462ZM299.54 60.2433L304.54 60.2466L304.548 48.1642L296.005 56.7077L299.54 60.2433ZM250.174 102.538L246.639 106.074L253.71 113.145L257.245 109.609L250.174 102.538ZM207.303 156.017L210.838 159.552L217.909 152.481L214.374 148.946L207.303 156.017ZM231.222 170.953L234.757 167.418L227.686 160.347L224.151 163.882L231.222 170.953ZM190.373 190.428L189.372 195.327L189.372 195.327L190.373 190.428ZM215.555 205.281C217.87 203.775 218.526 200.678 217.021 198.363C215.515 196.048 212.418 195.392 210.103 196.898L215.555 205.281ZM296.005 180.751C289.164 187.592 278.09 187.593 271.27 180.773L264.199 187.844C274.933 198.578 292.339 198.559 303.076 187.823L296.005 180.751ZM271.291 156.038C278.132 149.197 289.206 149.197 296.026 156.017L303.097 148.946C292.363 138.211 274.957 138.23 264.22 148.967L271.291 156.038ZM296.026 156.017C302.846 162.837 302.845 173.911 296.005 180.751L303.076 187.823C313.813 177.086 313.831 159.68 303.097 148.946L296.026 156.017ZM271.339 180.843L182.637 88.5837L175.428 95.5144L264.13 187.774L271.339 180.843ZM175.412 63.6697L232.171 123.985L239.453 117.132L182.695 56.8167L175.412 63.6697ZM232.333 124.15L250.231 141.492L257.189 134.31L239.291 116.968L232.333 124.15ZM257.247 141.435L303.056 95.5827L295.982 88.5149L250.173 134.367L257.247 141.435ZM184.033 92.0524L184.043 76.1495L174.043 76.1429L174.033 92.0457L184.033 92.0524ZM184.043 76.1495L184.054 60.2466L174.054 60.2399L174.043 76.1428L184.043 76.1495ZM304.519 92.0521L304.53 76.1494L294.53 76.1429L294.519 92.0456L304.519 92.0521ZM304.53 76.1495L304.54 60.2466L294.54 60.2399L294.53 76.1428L304.53 76.1495ZM296.005 56.7077L250.174 102.538L257.245 109.609L303.076 63.7788L296.005 56.7077ZM214.374 148.946C203.64 138.212 186.234 138.23 175.497 148.967L182.568 156.038C189.409 149.197 200.483 149.197 207.303 156.017L214.374 148.946ZM175.497 148.967C164.76 159.704 164.742 177.11 175.476 187.844L182.547 180.773C175.727 173.953 175.727 162.879 182.568 156.038L175.497 148.967ZM214.353 187.823L231.222 170.953L224.151 163.882L207.282 180.752L214.353 187.823ZM175.476 187.844C179.419 191.787 184.278 194.286 189.372 195.327L191.374 185.529C188.14 184.868 185.062 183.287 182.547 180.773L175.476 187.844ZM189.372 195.327C193.655 196.202 198.105 196.048 202.332 194.864L199.636 185.235C196.944 185.988 194.104 186.087 191.374 185.529L189.372 195.327ZM202.332 194.864C206.738 193.63 210.897 191.278 214.353 187.823L207.282 180.752C205.071 182.962 202.431 184.452 199.636 185.235L202.332 194.864ZM197.201 186.78C195.902 188.282 195.509 190.034 195.459 191.41C195.409 192.783 195.68 194.095 196.042 195.214C196.766 197.454 198.108 199.701 199.729 201.571C201.336 203.423 203.533 205.265 206.185 206.242C209.003 207.28 212.408 207.328 215.555 205.281L210.103 196.898C210.069 196.92 210.064 197.014 209.641 196.858C209.054 196.642 208.18 196.052 207.283 195.018C206.401 194.001 205.806 192.908 205.557 192.138C205.432 191.752 205.457 191.642 205.453 191.773C205.448 191.907 205.39 192.598 204.767 193.319L197.201 186.78Z" fill="white"/>
<path d="M239 219.246C234.88 216.141 223.991 215.676 217.811 221.604C207.216 234.446 197.799 231.623 190 221.604C190 240.909 194.12 247.711 202.066 248.558C215.309 251.098 228.7 241.925 233.997 240.514C235.332 240.158 237.381 239.988 239 239.988C240.619 239.988 242.668 240.158 244.003 240.514C249.3 241.925 262.691 251.098 275.934 248.558C283.88 247.711 288 240.909 288 221.604C280.201 231.623 270.784 234.446 260.189 221.604C254.009 215.676 243.12 216.141 239 219.246Z" fill="#C32121"/>
<path d="M301.5 231.107C334.831 210.254 357 173.216 357 131C357 65.8304 304.17 13 239 13C173.83 13 121 65.8304 121 131C121 173.216 143.169 210.254 176.5 231.107" stroke="#C42121" stroke-width="8"/>
<rect x="267.17" y="295" width="8.72629" height="8.72629" transform="rotate(45 267.17 295)" fill="white"/>
<path d="M15.12 269.284C17.864 269.452 20.104 270.068 21.84 271.132C23.632 272.14 24.976 273.456 25.872 275.08C26.824 276.704 27.384 278.524 27.552 280.54C27.72 282.556 27.58 284.6 27.132 286.672C26.684 288.744 25.956 290.76 24.948 292.72C23.996 294.68 22.82 296.416 21.42 297.928C20.076 299.384 18.564 300.56 16.884 301.456C15.204 302.296 13.468 302.66 11.676 302.548L11.424 324.304C11.424 324.752 11.704 325.396 12.264 326.236C12.824 327.02 13.244 327.608 13.524 328H1.26C1.428 327.832 1.652 327.58 1.932 327.244C2.212 326.908 2.492 326.544 2.772 326.152C3.108 325.76 3.36 325.396 3.528 325.06C3.752 324.668 3.864 324.36 3.864 324.136V272.896C3.864 272.672 3.78 272.392 3.612 272.056C3.444 271.664 3.22 271.3 2.94 270.964C2.716 270.572 2.492 270.236 2.268 269.956C2.044 269.62 1.848 269.368 1.68 269.2L15.12 269.284ZM11.592 296.668C13.664 295.884 15.344 294.792 16.632 293.392C17.976 291.936 18.956 290.396 19.572 288.772C20.188 287.148 20.496 285.524 20.496 283.9C20.552 282.22 20.328 280.708 19.824 279.364C19.32 278.02 18.564 276.928 17.556 276.088C16.604 275.248 15.456 274.828 14.112 274.828L11.592 274.66V296.668ZM52.4265 328C52.7625 327.72 53.1265 327.3 53.5185 326.74C53.9105 326.18 54.1065 325.676 54.1065 325.228L54.2745 306.748C54.2745 305.404 53.8825 304.368 53.0985 303.64C52.3705 302.912 51.5305 302.492 50.5785 302.38C49.6265 302.268 48.7305 302.492 47.8905 303.052C47.1065 303.612 46.7145 304.536 46.7145 305.824L46.5465 324.304C46.5465 324.752 46.8265 325.396 47.3865 326.236C47.9465 327.02 48.3665 327.608 48.6465 328H36.3825C36.5505 327.832 36.7745 327.58 37.0545 327.244C37.3345 326.908 37.6145 326.544 37.8945 326.152C38.1745 325.76 38.3985 325.396 38.5665 325.06C38.7905 324.668 38.9025 324.36 38.9025 324.136V272.896C38.9025 272.672 38.8185 272.392 38.6505 272.056C38.4825 271.664 38.2865 271.3 38.0625 270.964C37.8385 270.572 37.6145 270.236 37.3905 269.956C37.1665 269.62 36.9705 269.368 36.8025 269.2L50.1585 269.284C52.8465 269.452 55.0585 270.04 56.7945 271.048C58.5305 272 59.8745 273.26 60.8265 274.828C61.7785 276.34 62.3665 278.048 62.5905 279.952C62.8145 281.856 62.7305 283.816 62.3385 285.832C62.0025 287.848 61.3865 289.836 60.4905 291.796C59.6505 293.7 58.6145 295.408 57.3825 296.92C58.2225 298.096 58.8665 298.964 59.3145 299.524C59.7625 300.084 60.0985 300.616 60.3225 301.12C60.5465 301.624 60.6865 302.24 60.7425 302.968C60.7985 303.64 60.8265 304.676 60.8265 306.076L61.1625 324.724C61.1625 325.284 61.3865 325.872 61.8345 326.488C62.3385 327.104 62.7585 327.608 63.0945 328H52.4265ZM46.6305 296.668C48.7025 295.884 50.3825 294.792 51.6705 293.392C53.0145 291.936 53.9945 290.396 54.6105 288.772C55.2825 287.148 55.6185 285.524 55.6185 283.9C55.6745 282.22 55.4505 280.708 54.9465 279.364C54.4425 278.02 53.6865 276.928 52.6785 276.088C51.7265 275.248 50.5785 274.828 49.2345 274.828L46.6305 274.66V296.668ZM93.9035 284.236C93.7915 284.46 93.5675 284.46 93.2315 284.236C92.8955 284.012 92.6715 283.732 92.5595 283.396C92.0555 281.716 91.2155 280.092 90.0395 278.524C88.9195 276.956 87.7715 275.78 86.5955 274.996C85.4755 274.212 84.4675 274.016 83.5715 274.408C82.7315 274.8 82.2835 276.088 82.2275 278.272V293.224C82.7315 293 83.2355 292.776 83.7395 292.552C84.2435 292.272 84.7755 292.104 85.3355 292.048C85.9515 291.936 86.5955 291.964 87.2675 292.132C87.9395 292.3 88.6395 292.664 89.3675 293.224V300.784C88.6395 300.28 87.9395 299.972 87.2675 299.86C86.6515 299.692 86.0355 299.664 85.4195 299.776C84.8595 299.832 84.2995 299.972 83.7395 300.196C83.2355 300.364 82.7315 300.56 82.2275 300.784V319.012C82.2275 321.42 82.6475 322.792 83.4875 323.128C84.3835 323.408 85.3635 322.988 86.4275 321.868C87.4915 320.692 88.4995 319.012 89.4515 316.828C90.4595 314.588 91.0475 312.152 91.2155 309.52C91.2715 309.072 91.5235 308.68 91.9715 308.344C92.4195 308.008 92.8675 308.036 93.3155 308.428V328H72.8195C73.2675 327.552 73.6875 327.02 74.0795 326.404C74.4715 325.788 74.6675 325.172 74.6675 324.556V272.98C74.6675 272.308 74.4995 271.636 74.1635 270.964C73.8275 270.236 73.3515 269.648 72.7355 269.2H93.9035V284.236ZM121.055 328L112.487 286.42L113.243 324.892C113.299 325.452 113.523 326.012 113.915 326.572C114.307 327.076 114.699 327.552 115.091 328H104.003C104.227 327.72 104.563 327.3 105.011 326.74C105.459 326.124 105.683 325.676 105.683 325.396V272.056C105.683 271.552 105.487 271.048 105.095 270.544C104.759 270.04 104.395 269.592 104.003 269.2H114.251L123.071 309.52L122.231 272.392C122.231 271.888 122.007 271.328 121.559 270.712C121.111 270.096 120.663 269.592 120.215 269.2H131.387C130.939 269.648 130.575 270.124 130.295 270.628C130.015 271.076 129.875 271.58 129.875 272.14V324.976C129.875 325.536 130.071 326.096 130.463 326.656C130.911 327.16 131.387 327.608 131.891 328H121.055ZM166.524 281.968C166.524 282.584 166.244 282.92 165.684 282.976C165.18 283.032 164.872 282.724 164.76 282.052C164.648 281.268 164.564 280.54 164.508 279.868C164.452 279.14 164.228 278.524 163.836 278.02C163.444 277.46 162.8 277.04 161.904 276.76C161.064 276.424 159.804 276.256 158.124 276.256V323.296C158.124 324.136 158.404 324.976 158.964 325.816C159.524 326.656 160.056 327.384 160.56 328H147.96C148.464 327.496 148.996 326.824 149.556 325.984C150.116 325.144 150.396 324.332 150.396 323.548V276.256C148.94 276.2 147.764 276.34 146.868 276.676C146.028 276.956 145.384 277.376 144.936 277.936C144.488 278.496 144.18 279.14 144.012 279.868C143.844 280.54 143.732 281.268 143.676 282.052C143.564 282.724 143.256 283.032 142.752 282.976C142.248 282.92 141.996 282.584 141.996 281.968V269.2H166.44V276.256L166.524 281.968ZM185.948 325.06C185.948 325.564 186.088 326.068 186.368 326.572C186.704 327.076 187.068 327.552 187.46 328H176.708C177.1 327.608 177.436 327.16 177.716 326.656C178.052 326.152 178.22 325.648 178.22 325.144V272.308C178.22 271.692 178.08 271.132 177.8 270.628C177.576 270.124 177.268 269.648 176.876 269.2H187.376C186.424 270.04 185.948 271.048 185.948 272.224V325.06ZM214.684 316.66C214.796 316.044 215.048 315.54 215.44 315.148C215.888 314.756 216.392 314.812 216.952 315.316C216.952 318.452 216.476 321 215.524 322.96C214.628 324.92 213.48 326.376 212.08 327.328C210.736 328.28 209.252 328.756 207.628 328.756C206.06 328.812 204.576 328.42 203.176 327.58C201.776 326.74 200.572 325.536 199.564 323.968C198.612 322.4 198.08 320.524 197.968 318.34V278.692C198.136 275.22 199.172 272.728 201.076 271.216C202.98 269.648 205.444 268.836 208.468 268.78C209.252 268.78 210.036 268.892 210.82 269.116C211.604 269.34 212.332 269.536 213.004 269.704C213.732 269.872 214.376 269.9 214.936 269.788C215.496 269.676 216 269.256 216.448 268.528V284.488C216.336 284.712 216.084 284.852 215.692 284.908C215.3 284.964 215.048 284.656 214.936 283.984C214.6 281.632 213.9 279.868 212.836 278.692C211.828 277.46 210.764 276.704 209.644 276.424C208.58 276.144 207.628 276.284 206.788 276.844C205.948 277.404 205.528 278.3 205.528 279.532V317.332C205.528 319.46 205.948 320.832 206.788 321.448C207.684 322.064 208.664 322.204 209.728 321.868C210.848 321.532 211.884 320.86 212.836 319.852C213.844 318.844 214.46 317.78 214.684 316.66ZM248.188 284.236C248.076 284.46 247.852 284.46 247.516 284.236C247.18 284.012 246.956 283.732 246.844 283.396C246.34 281.716 245.5 280.092 244.324 278.524C243.204 276.956 242.056 275.78 240.88 274.996C239.76 274.212 238.752 274.016 237.856 274.408C237.016 274.8 236.568 276.088 236.512 278.272V293.224C237.016 293 237.52 292.776 238.024 292.552C238.528 292.272 239.06 292.104 239.62 292.048C240.236 291.936 240.88 291.964 241.552 292.132C242.224 292.3 242.924 292.664 243.652 293.224V300.784C242.924 300.28 242.224 299.972 241.552 299.86C240.936 299.692 240.32 299.664 239.704 299.776C239.144 299.832 238.584 299.972 238.024 300.196C237.52 300.364 237.016 300.56 236.512 300.784V319.012C236.512 321.42 236.932 322.792 237.772 323.128C238.668 323.408 239.648 322.988 240.712 321.868C241.776 320.692 242.784 319.012 243.736 316.828C244.744 314.588 245.332 312.152 245.5 309.52C245.556 309.072 245.808 308.68 246.256 308.344C246.704 308.008 247.152 308.036 247.6 308.428V328H227.104C227.552 327.552 227.972 327.02 228.364 326.404C228.756 325.788 228.952 325.172 228.952 324.556V272.98C228.952 272.308 228.784 271.636 228.448 270.964C228.112 270.236 227.636 269.648 227.02 269.2H248.188V284.236ZM294.339 283.396C295.235 285.972 296.355 288.772 297.699 291.796C299.099 294.764 300.443 297.816 301.731 300.952C303.019 304.032 304.111 307.112 305.007 310.192C305.959 313.272 306.435 316.184 306.435 318.928C306.435 321.56 305.791 323.688 304.503 325.312C303.215 326.88 301.647 328 299.799 328.672C297.951 329.344 295.963 329.596 293.835 329.428C291.763 329.26 289.887 328.7 288.207 327.748C286.191 326.684 284.763 325.172 283.923 323.212C283.083 321.196 282.691 319.096 282.747 316.912C282.803 314.672 283.223 312.516 284.007 310.444C284.791 308.316 285.827 306.608 287.115 305.32C287.787 304.648 288.263 304.312 288.543 304.312C288.879 304.256 289.103 304.368 289.215 304.648C289.327 304.872 289.355 305.18 289.299 305.572C289.243 305.908 289.187 306.16 289.131 306.328C288.179 308.624 287.787 310.752 287.955 312.712C288.123 314.672 288.599 316.352 289.383 317.752C290.167 319.152 291.119 320.216 292.239 320.944C293.359 321.672 294.395 321.952 295.347 321.784C296.355 321.616 297.111 320.972 297.615 319.852C298.175 318.732 298.287 317.024 297.951 314.728L297.699 313.048C297.027 309.52 295.935 306.104 294.423 302.8C292.911 299.44 291.427 296.22 289.971 293.14C288.515 290.004 287.311 287.036 286.359 284.236C285.463 281.38 285.239 278.72 285.687 276.256C286.135 274.352 287.031 272.784 288.375 271.552C289.719 270.32 291.231 269.452 292.911 268.948C294.591 268.444 296.299 268.304 298.035 268.528C299.827 268.752 301.395 269.368 302.739 270.376C303.467 270.936 303.943 271.216 304.167 271.216C304.447 271.216 304.923 270.572 305.595 269.284V284.488C305.483 285.272 305.343 285.692 305.175 285.748C305.007 285.804 304.811 285.692 304.587 285.412C304.363 285.076 304.139 284.684 303.915 284.236C303.691 283.732 303.523 283.312 303.411 282.976C303.131 282.136 302.599 281.296 301.815 280.456C301.087 279.56 300.275 278.804 299.379 278.188C298.483 277.572 297.587 277.124 296.691 276.844C295.795 276.564 295.067 276.592 294.507 276.928C293.947 277.208 293.611 277.88 293.499 278.944C293.387 279.952 293.667 281.436 294.339 283.396ZM341.904 281.968C341.904 282.584 341.624 282.92 341.064 282.976C340.56 283.032 340.252 282.724 340.14 282.052C340.028 281.268 339.944 280.54 339.888 279.868C339.832 279.14 339.608 278.524 339.216 278.02C338.824 277.46 338.18 277.04 337.284 276.76C336.444 276.424 335.184 276.256 333.504 276.256V323.296C333.504 324.136 333.784 324.976 334.344 325.816C334.904 326.656 335.436 327.384 335.94 328H323.34C323.844 327.496 324.376 326.824 324.936 325.984C325.496 325.144 325.776 324.332 325.776 323.548V276.256C324.32 276.2 323.144 276.34 322.248 276.676C321.408 276.956 320.764 277.376 320.316 277.936C319.868 278.496 319.56 279.14 319.392 279.868C319.224 280.54 319.112 281.268 319.056 282.052C318.944 282.724 318.636 283.032 318.132 282.976C317.628 282.92 317.376 282.584 317.376 281.968V269.2H341.82V276.256L341.904 281.968ZM368.05 328C368.386 327.72 368.75 327.3 369.142 326.74C369.534 326.18 369.73 325.676 369.73 325.228L369.898 306.748C369.898 305.404 369.506 304.368 368.722 303.64C367.994 302.912 367.154 302.492 366.202 302.38C365.25 302.268 364.354 302.492 363.514 303.052C362.73 303.612 362.338 304.536 362.338 305.824L362.17 324.304C362.17 324.752 362.45 325.396 363.01 326.236C363.57 327.02 363.99 327.608 364.27 328H352.006C352.174 327.832 352.398 327.58 352.678 327.244C352.958 326.908 353.238 326.544 353.518 326.152C353.798 325.76 354.022 325.396 354.19 325.06C354.414 324.668 354.526 324.36 354.526 324.136V272.896C354.526 272.672 354.442 272.392 354.274 272.056C354.106 271.664 353.91 271.3 353.686 270.964C353.462 270.572 353.238 270.236 353.014 269.956C352.79 269.62 352.594 269.368 352.426 269.2L365.782 269.284C368.47 269.452 370.682 270.04 372.418 271.048C374.154 272 375.498 273.26 376.45 274.828C377.402 276.34 377.99 278.048 378.214 279.952C378.438 281.856 378.354 283.816 377.962 285.832C377.626 287.848 377.01 289.836 376.114 291.796C375.274 293.7 374.238 295.408 373.006 296.92C373.846 298.096 374.49 298.964 374.938 299.524C375.386 300.084 375.722 300.616 375.946 301.12C376.17 301.624 376.31 302.24 376.366 302.968C376.422 303.64 376.45 304.676 376.45 306.076L376.786 324.724C376.786 325.284 377.01 325.872 377.458 326.488C377.962 327.104 378.382 327.608 378.718 328H368.05ZM362.254 296.668C364.326 295.884 366.006 294.792 367.294 293.392C368.638 291.936 369.618 290.396 370.234 288.772C370.906 287.148 371.242 285.524 371.242 283.9C371.298 282.22 371.074 280.708 370.57 279.364C370.066 278.02 369.31 276.928 368.302 276.088C367.35 275.248 366.202 274.828 364.858 274.828L362.254 274.66V296.668ZM409.527 284.236C409.415 284.46 409.191 284.46 408.855 284.236C408.519 284.012 408.295 283.732 408.183 283.396C407.679 281.716 406.839 280.092 405.663 278.524C404.543 276.956 403.395 275.78 402.219 274.996C401.099 274.212 400.091 274.016 399.195 274.408C398.355 274.8 397.907 276.088 397.851 278.272V293.224C398.355 293 398.859 292.776 399.363 292.552C399.867 292.272 400.399 292.104 400.959 292.048C401.575 291.936 402.219 291.964 402.891 292.132C403.563 292.3 404.263 292.664 404.991 293.224V300.784C404.263 300.28 403.563 299.972 402.891 299.86C402.275 299.692 401.659 299.664 401.043 299.776C400.483 299.832 399.923 299.972 399.363 300.196C398.859 300.364 398.355 300.56 397.851 300.784V319.012C397.851 321.42 398.271 322.792 399.111 323.128C400.007 323.408 400.987 322.988 402.051 321.868C403.115 320.692 404.123 319.012 405.075 316.828C406.083 314.588 406.671 312.152 406.839 309.52C406.895 309.072 407.147 308.68 407.595 308.344C408.043 308.008 408.491 308.036 408.939 308.428V328H388.443C388.891 327.552 389.311 327.02 389.703 326.404C390.095 325.788 390.291 325.172 390.291 324.556V272.98C390.291 272.308 390.123 271.636 389.787 270.964C389.451 270.236 388.975 269.648 388.359 269.2H409.527V284.236ZM440.794 284.236C440.682 284.46 440.458 284.46 440.122 284.236C439.786 284.012 439.562 283.732 439.45 283.396C438.946 281.716 438.106 280.092 436.93 278.524C435.81 276.956 434.662 275.78 433.486 274.996C432.366 274.212 431.358 274.016 430.462 274.408C429.622 274.8 429.174 276.088 429.118 278.272V293.224C429.622 293 430.126 292.776 430.63 292.552C431.134 292.272 431.666 292.104 432.226 292.048C432.842 291.936 433.486 291.964 434.158 292.132C434.83 292.3 435.53 292.664 436.258 293.224V300.784C435.53 300.28 434.83 299.972 434.158 299.86C433.542 299.692 432.926 299.664 432.31 299.776C431.75 299.832 431.19 299.972 430.63 300.196C430.126 300.364 429.622 300.56 429.118 300.784V319.012C429.118 321.42 429.538 322.792 430.378 323.128C431.274 323.408 432.254 322.988 433.318 321.868C434.382 320.692 435.39 319.012 436.342 316.828C437.35 314.588 437.938 312.152 438.106 309.52C438.162 309.072 438.414 308.68 438.862 308.344C439.31 308.008 439.758 308.036 440.206 308.428V328H419.71C420.158 327.552 420.578 327.02 420.97 326.404C421.362 325.788 421.558 325.172 421.558 324.556V272.98C421.558 272.308 421.39 271.636 421.054 270.964C420.718 270.236 420.242 269.648 419.626 269.2H440.794V284.236ZM476.323 281.968C476.323 282.584 476.043 282.92 475.483 282.976C474.979 283.032 474.671 282.724 474.559 282.052C474.447 281.268 474.363 280.54 474.307 279.868C474.251 279.14 474.027 278.524 473.635 278.02C473.243 277.46 472.599 277.04 471.703 276.76C470.863 276.424 469.603 276.256 467.923 276.256V323.296C467.923 324.136 468.203 324.976 468.763 325.816C469.323 326.656 469.855 327.384 470.359 328H457.759C458.263 327.496 458.795 326.824 459.355 325.984C459.915 325.144 460.195 324.332 460.195 323.548V276.256C458.739 276.2 457.563 276.34 456.667 276.676C455.827 276.956 455.183 277.376 454.735 277.936C454.287 278.496 453.979 279.14 453.811 279.868C453.643 280.54 453.531 281.268 453.475 282.052C453.363 282.724 453.055 283.032 452.551 282.976C452.047 282.92 451.795 282.584 451.795 281.968V269.2H476.239V276.256L476.323 281.968Z" fill="white"/>
<path d="M120.24 371.134C122.483 376.47 122.985 380.955 121.748 384.59C120.511 388.225 117.862 390.835 113.802 392.42C113.261 392.613 112.642 392.749 111.946 392.826C111.25 392.903 110.515 392.961 109.742 393C108.969 393 108.176 393 107.364 393C106.591 393 105.837 393 105.102 393C105.411 392.613 105.682 392.169 105.914 391.666C106.185 391.125 106.32 390.622 106.32 390.158V354.894C106.32 354.585 106.127 354.159 105.74 353.618C105.392 353.077 105.102 352.671 104.87 352.4L113.976 352.458C115.832 352.574 117.321 353.115 118.442 354.082C119.563 355.01 120.356 356.17 120.82 357.562C121.323 358.954 121.516 360.443 121.4 362.028C121.284 363.575 120.955 365.025 120.414 366.378C119.873 367.731 119.119 368.872 118.152 369.8C117.185 370.689 116.103 371.134 114.904 371.134H120.24ZM111.598 388.186C112.874 387.683 113.937 386.968 114.788 386.04C115.677 385.073 116.354 384.029 116.818 382.908C117.282 381.787 117.553 380.646 117.63 379.486C117.746 378.287 117.707 377.205 117.514 376.238C117.321 375.271 116.973 374.498 116.47 373.918C115.967 373.299 115.349 372.99 114.614 372.99H111.598V388.186ZM111.54 370.032C113.087 369.22 114.247 368.041 115.02 366.494C115.793 364.947 116.238 363.42 116.354 361.912C116.47 360.365 116.257 359.031 115.716 357.91C115.175 356.789 114.363 356.228 113.28 356.228L111.54 356.17V370.032ZM158.459 393C158.613 392.845 158.787 392.633 158.981 392.362C159.213 392.053 159.309 391.801 159.271 391.608L157.879 383.43C157.801 383.043 157.473 382.85 156.893 382.85C156.351 382.811 155.733 382.889 155.037 383.082C154.379 383.237 153.78 383.469 153.239 383.778C152.697 384.049 152.407 384.281 152.369 384.474L151.731 391.202C151.692 391.395 151.769 391.705 151.963 392.13C152.195 392.517 152.388 392.807 152.543 393H144.539C144.809 392.691 145.041 392.381 145.235 392.072C145.467 391.724 145.621 391.357 145.699 390.97L153.529 355.474C153.645 354.933 153.587 354.411 153.355 353.908C153.123 353.367 152.871 352.864 152.601 352.4H156.893L165.071 391.434C165.109 391.627 165.245 391.898 165.477 392.246C165.747 392.555 165.96 392.807 166.115 393H158.459ZM152.601 379.776C153.374 379.351 154.147 379.08 154.921 378.964C155.733 378.809 156.545 378.713 157.357 378.674L154.747 365.566L152.601 379.776ZM201.176 393C201.408 392.807 201.66 392.517 201.93 392.13C202.201 391.743 202.336 391.395 202.336 391.086L202.452 378.326C202.452 377.398 202.182 376.683 201.64 376.18C201.138 375.677 200.558 375.387 199.9 375.31C199.243 375.233 198.624 375.387 198.044 375.774C197.503 376.161 197.232 376.799 197.232 377.688L197.116 390.448C197.116 390.757 197.31 391.202 197.696 391.782C198.083 392.323 198.373 392.729 198.566 393H190.098C190.214 392.884 190.369 392.71 190.562 392.478C190.756 392.246 190.949 391.995 191.142 391.724C191.336 391.453 191.49 391.202 191.606 390.97C191.761 390.699 191.838 390.487 191.838 390.332V354.952C191.838 354.797 191.78 354.604 191.664 354.372C191.548 354.101 191.413 353.85 191.258 353.618C191.104 353.347 190.949 353.115 190.794 352.922C190.64 352.69 190.504 352.516 190.388 352.4L199.61 352.458C201.466 352.574 202.994 352.98 204.192 353.676C205.391 354.333 206.319 355.203 206.976 356.286C207.634 357.33 208.04 358.509 208.194 359.824C208.349 361.139 208.291 362.492 208.02 363.884C207.788 365.276 207.363 366.649 206.744 368.002C206.164 369.317 205.449 370.496 204.598 371.54C205.178 372.352 205.623 372.951 205.932 373.338C206.242 373.725 206.474 374.092 206.628 374.44C206.783 374.788 206.88 375.213 206.918 375.716C206.957 376.18 206.976 376.895 206.976 377.862L207.208 390.738C207.208 391.125 207.363 391.531 207.672 391.956C208.02 392.381 208.31 392.729 208.542 393H201.176ZM197.174 371.366C198.605 370.825 199.765 370.071 200.654 369.104C201.582 368.099 202.259 367.035 202.684 365.914C203.148 364.793 203.38 363.671 203.38 362.55C203.419 361.39 203.264 360.346 202.916 359.418C202.568 358.49 202.046 357.736 201.35 357.156C200.693 356.576 199.9 356.286 198.972 356.286L197.174 356.17V371.366ZM248.026 371.134C250.268 376.47 250.771 380.955 249.534 384.59C248.296 388.225 245.648 390.835 241.588 392.42C241.046 392.613 240.428 392.749 239.732 392.826C239.036 392.903 238.301 392.961 237.528 393C236.754 393 235.962 393 235.15 393C234.376 393 233.622 393 232.888 393C233.197 392.613 233.468 392.169 233.7 391.666C233.97 391.125 234.106 390.622 234.106 390.158V354.894C234.106 354.585 233.912 354.159 233.526 353.618C233.178 353.077 232.888 352.671 232.656 352.4L241.762 352.458C243.618 352.574 245.106 353.115 246.228 354.082C247.349 355.01 248.142 356.17 248.606 357.562C249.108 358.954 249.302 360.443 249.186 362.028C249.07 363.575 248.741 365.025 248.2 366.378C247.658 367.731 246.904 368.872 245.938 369.8C244.971 370.689 243.888 371.134 242.69 371.134H248.026ZM239.384 388.186C240.66 387.683 241.723 386.968 242.574 386.04C243.463 385.073 244.14 384.029 244.604 382.908C245.068 381.787 245.338 380.646 245.416 379.486C245.532 378.287 245.493 377.205 245.3 376.238C245.106 375.271 244.758 374.498 244.256 373.918C243.753 373.299 243.134 372.99 242.4 372.99H239.384V388.186ZM239.326 370.032C240.872 369.22 242.032 368.041 242.806 366.494C243.579 364.947 244.024 363.42 244.14 361.912C244.256 360.365 244.043 359.031 243.502 357.91C242.96 356.789 242.148 356.228 241.066 356.228L239.326 356.17V370.032ZM288.64 362.782C288.563 362.937 288.408 362.937 288.176 362.782C287.944 362.627 287.789 362.434 287.712 362.202C287.364 361.042 286.784 359.921 285.972 358.838C285.199 357.755 284.406 356.943 283.594 356.402C282.821 355.861 282.125 355.725 281.506 355.996C280.926 356.267 280.617 357.156 280.578 358.664V368.988C280.926 368.833 281.274 368.679 281.622 368.524C281.97 368.331 282.337 368.215 282.724 368.176C283.149 368.099 283.594 368.118 284.058 368.234C284.522 368.35 285.005 368.601 285.508 368.988V374.208C285.005 373.86 284.522 373.647 284.058 373.57C283.633 373.454 283.207 373.435 282.782 373.512C282.395 373.551 282.009 373.647 281.622 373.802C281.274 373.918 280.926 374.053 280.578 374.208V386.794C280.578 388.457 280.868 389.404 281.448 389.636C282.067 389.829 282.743 389.539 283.478 388.766C284.213 387.954 284.909 386.794 285.566 385.286C286.262 383.739 286.668 382.057 286.784 380.24C286.823 379.931 286.997 379.66 287.306 379.428C287.615 379.196 287.925 379.215 288.234 379.486V393H274.082C274.391 392.691 274.681 392.323 274.952 391.898C275.223 391.473 275.358 391.047 275.358 390.622V355.01C275.358 354.546 275.242 354.082 275.01 353.618C274.778 353.115 274.449 352.709 274.024 352.4H288.64V362.782ZM324.091 393C324.323 392.807 324.574 392.517 324.845 392.13C325.116 391.743 325.251 391.395 325.251 391.086L325.367 378.326C325.367 377.398 325.096 376.683 324.555 376.18C324.052 375.677 323.472 375.387 322.815 375.31C322.158 375.233 321.539 375.387 320.959 375.774C320.418 376.161 320.147 376.799 320.147 377.688L320.031 390.448C320.031 390.757 320.224 391.202 320.611 391.782C320.998 392.323 321.288 392.729 321.481 393H313.013C313.129 392.884 313.284 392.71 313.477 392.478C313.67 392.246 313.864 391.995 314.057 391.724C314.25 391.453 314.405 391.202 314.521 390.97C314.676 390.699 314.753 390.487 314.753 390.332V354.952C314.753 354.797 314.695 354.604 314.579 354.372C314.463 354.101 314.328 353.85 314.173 353.618C314.018 353.347 313.864 353.115 313.709 352.922C313.554 352.69 313.419 352.516 313.303 352.4L322.525 352.458C324.381 352.574 325.908 352.98 327.107 353.676C328.306 354.333 329.234 355.203 329.891 356.286C330.548 357.33 330.954 358.509 331.109 359.824C331.264 361.139 331.206 362.492 330.935 363.884C330.703 365.276 330.278 366.649 329.659 368.002C329.079 369.317 328.364 370.496 327.513 371.54C328.093 372.352 328.538 372.951 328.847 373.338C329.156 373.725 329.388 374.092 329.543 374.44C329.698 374.788 329.794 375.213 329.833 375.716C329.872 376.18 329.891 376.895 329.891 377.862L330.123 390.738C330.123 391.125 330.278 391.531 330.587 391.956C330.935 392.381 331.225 392.729 331.457 393H324.091ZM320.089 371.366C321.52 370.825 322.68 370.071 323.569 369.104C324.497 368.099 325.174 367.035 325.599 365.914C326.063 364.793 326.295 363.671 326.295 362.55C326.334 361.39 326.179 360.346 325.831 359.418C325.483 358.49 324.961 357.736 324.265 357.156C323.608 356.576 322.815 356.286 321.887 356.286L320.089 356.17V371.366ZM363.576 362.202C364.194 363.981 364.968 365.914 365.896 368.002C366.862 370.051 367.79 372.159 368.68 374.324C369.569 376.451 370.323 378.577 370.942 380.704C371.599 382.831 371.928 384.841 371.928 386.736C371.928 388.553 371.483 390.023 370.594 391.144C369.704 392.227 368.622 393 367.346 393.464C366.07 393.928 364.697 394.102 363.228 393.986C361.797 393.87 360.502 393.483 359.342 392.826C357.95 392.091 356.964 391.047 356.384 389.694C355.804 388.302 355.533 386.852 355.572 385.344C355.61 383.797 355.9 382.309 356.442 380.878C356.983 379.409 357.698 378.229 358.588 377.34C359.052 376.876 359.38 376.644 359.574 376.644C359.806 376.605 359.96 376.683 360.038 376.876C360.115 377.031 360.134 377.243 360.096 377.514C360.057 377.746 360.018 377.92 359.98 378.036C359.322 379.621 359.052 381.091 359.168 382.444C359.284 383.797 359.612 384.957 360.154 385.924C360.695 386.891 361.352 387.625 362.126 388.128C362.899 388.631 363.614 388.824 364.272 388.708C364.968 388.592 365.49 388.147 365.838 387.374C366.224 386.601 366.302 385.421 366.07 383.836L365.896 382.676C365.432 380.24 364.678 377.881 363.634 375.6C362.59 373.28 361.565 371.057 360.56 368.93C359.554 366.765 358.723 364.715 358.066 362.782C357.447 360.81 357.292 358.973 357.602 357.272C357.911 355.957 358.53 354.875 359.458 354.024C360.386 353.173 361.43 352.574 362.59 352.226C363.75 351.878 364.929 351.781 366.128 351.936C367.365 352.091 368.448 352.516 369.376 353.212C369.878 353.599 370.207 353.792 370.362 353.792C370.555 353.792 370.884 353.347 371.348 352.458V362.956C371.27 363.497 371.174 363.787 371.058 363.826C370.942 363.865 370.806 363.787 370.652 363.594C370.497 363.362 370.342 363.091 370.188 362.782C370.033 362.434 369.917 362.144 369.84 361.912C369.646 361.332 369.279 360.752 368.738 360.172C368.235 359.553 367.674 359.031 367.056 358.606C366.437 358.181 365.818 357.871 365.2 357.678C364.581 357.485 364.078 357.504 363.692 357.736C363.305 357.929 363.073 358.393 362.996 359.128C362.918 359.824 363.112 360.849 363.576 362.202Z" fill="#C32121"/>
<path d="M478 374.5L392 379V370L478 374.5Z" fill="#C32121"/>
<path d="M0 374.5L86 370V379L0 374.5Z" fill="#C32121"/>
</svg>
