<svg width="245" height="249" viewBox="0 0 245 249" fill="none" xmlns="http://www.w3.org/2000/svg">
<path d="M150.734 184.308L147.13 187.774L147.164 187.809L147.199 187.844L150.734 184.308ZM147.22 148.967L143.685 152.502L150.756 159.574L154.291 156.038L147.22 148.967ZM62.0325 92.0491L57.0325 92.0457L57.0312 94.0614L58.4282 95.5144L62.0325 92.0491ZM62.0537 60.2432L65.695 56.8167L57.0621 47.6428L57.0537 60.2399L62.0537 60.2432ZM118.812 120.559L115.171 123.985L115.25 124.069L115.333 124.15L118.812 120.559ZM136.71 137.901L133.231 141.491L136.767 144.918L140.247 141.435L136.71 137.901ZM182.519 92.0488L186.056 95.5827L187.518 94.1199L187.519 92.0521L182.519 92.0488ZM62.0431 76.1462L57.0431 76.1428L57.0431 76.1428L62.0431 76.1462ZM182.53 76.1462L177.53 76.1428V76.1429L182.53 76.1462ZM182.54 60.2433L187.54 60.2466L187.548 48.1642L179.005 56.7077L182.54 60.2433ZM133.174 102.538L129.639 106.074L136.71 113.145L140.245 109.609L133.174 102.538ZM90.3028 156.017L93.8383 159.552L100.909 152.481L97.3739 148.946L90.3028 156.017ZM114.222 170.953L117.757 167.418L110.686 160.347L107.151 163.882L114.222 170.953ZM73.3731 190.428L72.3721 195.327L72.3721 195.327L73.3731 190.428ZM98.5552 205.281C100.87 203.775 101.526 200.678 100.021 198.363C98.515 196.048 95.4179 195.392 93.103 196.898L98.5552 205.281ZM179.005 180.751C172.164 187.592 161.09 187.593 154.27 180.773L147.199 187.844C157.933 198.578 175.339 198.559 186.076 187.823L179.005 180.751ZM154.291 156.038C161.132 149.197 172.206 149.197 179.026 156.017L186.097 148.946C175.363 138.211 157.957 138.23 147.22 148.967L154.291 156.038ZM179.026 156.017C185.846 162.837 185.845 173.911 179.005 180.751L186.076 187.823C196.813 177.086 196.831 159.68 186.097 148.946L179.026 156.017ZM154.339 180.843L65.6369 88.5837L58.4282 95.5144L147.13 187.774L154.339 180.843ZM58.4124 63.6697L115.171 123.985L122.453 117.132L65.695 56.8167L58.4124 63.6697ZM115.333 124.15L133.231 141.491L140.189 134.31L122.291 116.968L115.333 124.15ZM140.247 141.435L186.056 95.5827L178.982 88.5149L133.173 134.367L140.247 141.435ZM67.0325 92.0524L67.0431 76.1495L57.0431 76.1428L57.0325 92.0457L67.0325 92.0524ZM67.0431 76.1495L67.0537 60.2466L57.0537 60.2399L57.0431 76.1428L67.0431 76.1495ZM187.519 92.0521L187.53 76.1494L177.53 76.1429L177.519 92.0456L187.519 92.0521ZM187.53 76.1495L187.54 60.2466L177.54 60.2399L177.53 76.1428L187.53 76.1495ZM179.005 56.7077L133.174 102.538L140.245 109.609L186.076 63.7788L179.005 56.7077ZM97.3739 148.946C86.6397 138.212 69.2339 138.23 58.497 148.967L65.568 156.038C72.4087 149.197 83.4828 149.197 90.3028 156.017L97.3739 148.946ZM58.497 148.967C47.76 159.704 47.7416 177.11 58.4758 187.844L65.5469 180.773C58.7268 173.953 58.7274 162.879 65.568 156.038L58.497 148.967ZM97.3527 187.823L114.222 170.953L107.151 163.882L90.2816 180.752L97.3527 187.823ZM58.4758 187.844C62.4191 191.787 67.2775 194.286 72.3721 195.327L74.3741 185.529C71.14 184.868 68.0616 183.287 65.5469 180.773L58.4758 187.844ZM72.3721 195.327C76.6547 196.202 81.1053 196.048 85.3324 194.864L82.6357 185.235C79.9436 185.988 77.1039 186.087 74.3741 185.529L72.3721 195.327ZM85.3325 194.864C89.7384 193.63 93.897 191.278 97.3527 187.823L90.2816 180.752C88.0711 182.962 85.4306 184.452 82.6357 185.235L85.3325 194.864ZM80.2013 186.78C78.9024 188.282 78.509 190.034 78.4591 191.41C78.4094 192.783 78.6799 194.095 79.0419 195.214C79.766 197.454 81.1079 199.701 82.7293 201.571C84.3364 203.423 86.5325 205.265 89.1854 206.242C92.0029 207.28 95.4077 207.328 98.5552 205.281L93.103 196.898C93.0685 196.92 93.0638 197.014 92.6414 196.858C92.0542 196.642 91.1799 196.052 90.2834 195.018C89.4011 194.001 88.806 192.908 88.5569 192.138C88.4323 191.752 88.4573 191.642 88.4526 191.773C88.4477 191.907 88.3899 192.598 87.7668 193.319L80.2013 186.78Z" fill="white"/>
<path d="M122 219.246C117.88 216.141 106.991 215.676 100.811 221.604C90.2162 234.446 80.7988 231.623 73 221.604C73 240.909 77.1201 247.711 85.0661 248.558C98.3093 251.098 111.7 241.925 116.997 240.514C118.332 240.158 120.381 239.988 122 239.988C123.619 239.988 125.668 240.158 127.003 240.514C132.3 241.925 145.691 251.098 158.934 248.558C166.88 247.711 171 240.909 171 221.604C163.201 231.623 153.784 234.446 143.189 221.604C137.009 215.676 126.12 216.141 122 219.246Z" fill="#C32121"/>
<path d="M184.5 231.107C217.831 210.254 240 173.216 240 131C240 65.8304 187.17 13 122 13C56.8304 13 4 65.8304 4 131C4 173.216 26.1688 210.254 59.5 231.107" stroke="#C42121" stroke-width="8"/>
</svg>
