<svg width="420" height="420" viewBox="0 0 420 420" fill="none" xmlns="http://www.w3.org/2000/svg">
<g id="prentice-street-barbers">
<g id="text">
<g id="prentice-street">
<path id="PRENTICE STREET" d="M39.52 246.264C41.6107 246.392 43.3173 246.861 44.64 247.672C46.0053 248.44 47.0293 249.443 47.712 250.68C48.4373 251.917 48.864 253.304 48.992 254.84C49.12 256.376 49.0133 257.933 48.672 259.512C48.3307 261.091 47.776 262.627 47.008 264.12C46.2827 265.613 45.3867 266.936 44.32 268.088C43.296 269.197 42.144 270.093 40.864 270.776C39.584 271.416 38.2613 271.693 36.896 271.608L36.704 288.184C36.704 288.525 36.9173 289.016 37.344 289.656C37.7707 290.253 38.0907 290.701 38.304 291H28.96C29.088 290.872 29.2587 290.68 29.472 290.424C29.6853 290.168 29.8987 289.891 30.112 289.592C30.368 289.293 30.56 289.016 30.688 288.76C30.8587 288.461 30.944 288.227 30.944 288.056V249.016C30.944 248.845 30.88 248.632 30.752 248.376C30.624 248.077 30.4533 247.8 30.24 247.544C30.0693 247.245 29.8987 246.989 29.728 246.776C29.5573 246.52 29.408 246.328 29.28 246.2L39.52 246.264ZM36.832 267.128C38.4107 266.531 39.6907 265.699 40.672 264.632C41.696 263.523 42.4427 262.349 42.912 261.112C43.3813 259.875 43.616 258.637 43.616 257.4C43.6587 256.12 43.488 254.968 43.104 253.944C42.72 252.92 42.144 252.088 41.376 251.448C40.6507 250.808 39.776 250.488 38.752 250.488L36.832 250.36V267.128ZM67.944 291C68.2 290.787 68.4773 290.467 68.776 290.04C69.0747 289.613 69.224 289.229 69.224 288.888L69.352 274.808C69.352 273.784 69.0533 272.995 68.456 272.44C67.9013 271.885 67.2613 271.565 66.536 271.48C65.8107 271.395 65.128 271.565 64.488 271.992C63.8907 272.419 63.592 273.123 63.592 274.104L63.464 288.184C63.464 288.525 63.6773 289.016 64.104 289.656C64.5307 290.253 64.8507 290.701 65.064 291H55.72C55.848 290.872 56.0187 290.68 56.232 290.424C56.4453 290.168 56.6587 289.891 56.872 289.592C57.0853 289.293 57.256 289.016 57.384 288.76C57.5547 288.461 57.64 288.227 57.64 288.056V249.016C57.64 248.845 57.576 248.632 57.448 248.376C57.32 248.077 57.1707 247.8 57 247.544C56.8293 247.245 56.6587 246.989 56.488 246.776C56.3173 246.52 56.168 246.328 56.04 246.2L66.216 246.264C68.264 246.392 69.9493 246.84 71.272 247.608C72.5947 248.333 73.6187 249.293 74.344 250.488C75.0693 251.64 75.5173 252.941 75.688 254.392C75.8587 255.843 75.7947 257.336 75.496 258.872C75.24 260.408 74.7707 261.923 74.088 263.416C73.448 264.867 72.6587 266.168 71.72 267.32C72.36 268.216 72.8507 268.877 73.192 269.304C73.5333 269.731 73.7893 270.136 73.96 270.52C74.1307 270.904 74.2373 271.373 74.28 271.928C74.3227 272.44 74.344 273.229 74.344 274.296L74.6 288.504C74.6 288.931 74.7707 289.379 75.112 289.848C75.496 290.317 75.816 290.701 76.072 291H67.944ZM63.528 267.128C65.1067 266.531 66.3867 265.699 67.368 264.632C68.392 263.523 69.1387 262.349 69.608 261.112C70.12 259.875 70.376 258.637 70.376 257.4C70.4187 256.12 70.248 254.968 69.864 253.944C69.48 252.92 68.904 252.088 68.136 251.448C67.4107 250.808 66.536 250.488 65.512 250.488L63.528 250.36V267.128ZM99.5455 257.656C99.4602 257.827 99.2895 257.827 99.0335 257.656C98.7775 257.485 98.6068 257.272 98.5215 257.016C98.1375 255.736 97.4975 254.499 96.6015 253.304C95.7482 252.109 94.8735 251.213 93.9775 250.616C93.1242 250.019 92.3562 249.869 91.6735 250.168C91.0335 250.467 90.6922 251.448 90.6495 253.112V264.504C91.0335 264.333 91.4175 264.163 91.8015 263.992C92.1855 263.779 92.5908 263.651 93.0175 263.608C93.4868 263.523 93.9775 263.544 94.4895 263.672C95.0015 263.8 95.5348 264.077 96.0895 264.504V270.264C95.5348 269.88 95.0015 269.645 94.4895 269.56C94.0202 269.432 93.5508 269.411 93.0815 269.496C92.6548 269.539 92.2282 269.645 91.8015 269.816C91.4175 269.944 91.0335 270.093 90.6495 270.264V284.152C90.6495 285.987 90.9695 287.032 91.6095 287.288C92.2922 287.501 93.0388 287.181 93.8495 286.328C94.6602 285.432 95.4282 284.152 96.1535 282.488C96.9215 280.781 97.3695 278.925 97.4975 276.92C97.5402 276.579 97.7322 276.28 98.0735 276.024C98.4148 275.768 98.7562 275.789 99.0975 276.088V291H83.4815C83.8228 290.659 84.1428 290.253 84.4415 289.784C84.7402 289.315 84.8895 288.845 84.8895 288.376V249.08C84.8895 248.568 84.7615 248.056 84.5055 247.544C84.2495 246.989 83.8868 246.541 83.4175 246.2H99.5455V257.656ZM120.232 291L113.704 259.32L114.28 288.632C114.323 289.059 114.493 289.485 114.792 289.912C115.091 290.296 115.389 290.659 115.688 291H107.24C107.411 290.787 107.667 290.467 108.008 290.04C108.349 289.571 108.52 289.229 108.52 289.016V248.376C108.52 247.992 108.371 247.608 108.072 247.224C107.816 246.84 107.539 246.499 107.24 246.2H115.048L121.768 276.92L121.128 248.632C121.128 248.248 120.957 247.821 120.616 247.352C120.275 246.883 119.933 246.499 119.592 246.2H128.104C127.763 246.541 127.485 246.904 127.272 247.288C127.059 247.629 126.952 248.013 126.952 248.44V288.696C126.952 289.123 127.101 289.549 127.4 289.976C127.741 290.36 128.104 290.701 128.488 291H120.232ZM154.876 255.928C154.876 256.397 154.662 256.653 154.236 256.696C153.852 256.739 153.617 256.504 153.532 255.992C153.446 255.395 153.382 254.84 153.34 254.328C153.297 253.773 153.126 253.304 152.828 252.92C152.529 252.493 152.038 252.173 151.356 251.96C150.716 251.704 149.756 251.576 148.476 251.576V287.416C148.476 288.056 148.689 288.696 149.116 289.336C149.542 289.976 149.948 290.531 150.332 291H140.732C141.116 290.616 141.521 290.104 141.948 289.464C142.374 288.824 142.588 288.205 142.588 287.608V251.576C141.478 251.533 140.582 251.64 139.9 251.896C139.26 252.109 138.769 252.429 138.428 252.856C138.086 253.283 137.852 253.773 137.724 254.328C137.596 254.84 137.51 255.395 137.468 255.992C137.382 256.504 137.148 256.739 136.764 256.696C136.38 256.653 136.188 256.397 136.188 255.928V246.2H154.812V251.576L154.876 255.928ZM169.675 288.76C169.675 289.144 169.782 289.528 169.995 289.912C170.251 290.296 170.528 290.659 170.827 291H162.635C162.934 290.701 163.19 290.36 163.403 289.976C163.659 289.592 163.787 289.208 163.787 288.824V248.568C163.787 248.099 163.68 247.672 163.467 247.288C163.296 246.904 163.062 246.541 162.763 246.2H170.763C170.038 246.84 169.675 247.608 169.675 248.504V288.76ZM191.568 282.36C191.654 281.891 191.846 281.507 192.144 281.208C192.486 280.909 192.87 280.952 193.296 281.336C193.296 283.725 192.934 285.667 192.208 287.16C191.526 288.653 190.651 289.763 189.584 290.488C188.56 291.213 187.43 291.576 186.192 291.576C184.998 291.619 183.867 291.32 182.8 290.68C181.734 290.04 180.816 289.123 180.048 287.928C179.323 286.733 178.918 285.304 178.832 283.64V253.432C178.96 250.787 179.75 248.888 181.2 247.736C182.651 246.541 184.528 245.923 186.832 245.88C187.43 245.88 188.027 245.965 188.624 246.136C189.222 246.307 189.776 246.456 190.288 246.584C190.843 246.712 191.334 246.733 191.76 246.648C192.187 246.563 192.571 246.243 192.912 245.688V257.848C192.827 258.019 192.635 258.125 192.336 258.168C192.038 258.211 191.846 257.976 191.76 257.464C191.504 255.672 190.971 254.328 190.16 253.432C189.392 252.493 188.582 251.917 187.728 251.704C186.918 251.491 186.192 251.597 185.552 252.024C184.912 252.451 184.592 253.133 184.592 254.072V282.872C184.592 284.493 184.912 285.539 185.552 286.008C186.235 286.477 186.982 286.584 187.792 286.328C188.646 286.072 189.435 285.56 190.16 284.792C190.928 284.024 191.398 283.213 191.568 282.36ZM217.096 257.656C217.01 257.827 216.84 257.827 216.584 257.656C216.328 257.485 216.157 257.272 216.072 257.016C215.688 255.736 215.048 254.499 214.152 253.304C213.298 252.109 212.424 251.213 211.528 250.616C210.674 250.019 209.906 249.869 209.224 250.168C208.584 250.467 208.242 251.448 208.2 253.112V264.504C208.584 264.333 208.968 264.163 209.352 263.992C209.736 263.779 210.141 263.651 210.568 263.608C211.037 263.523 211.528 263.544 212.04 263.672C212.552 263.8 213.085 264.077 213.64 264.504V270.264C213.085 269.88 212.552 269.645 212.04 269.56C211.57 269.432 211.101 269.411 210.632 269.496C210.205 269.539 209.778 269.645 209.352 269.816C208.968 269.944 208.584 270.093 208.2 270.264V284.152C208.2 285.987 208.52 287.032 209.16 287.288C209.842 287.501 210.589 287.181 211.4 286.328C212.21 285.432 212.978 284.152 213.704 282.488C214.472 280.781 214.92 278.925 215.048 276.92C215.09 276.579 215.282 276.28 215.624 276.024C215.965 275.768 216.306 275.789 216.648 276.088V291H201.032C201.373 290.659 201.693 290.253 201.992 289.784C202.29 289.315 202.44 288.845 202.44 288.376V249.08C202.44 248.568 202.312 248.056 202.056 247.544C201.8 246.989 201.437 246.541 200.968 246.2H217.096V257.656ZM252.258 257.016C252.941 258.979 253.794 261.112 254.818 263.416C255.885 265.677 256.909 268.003 257.89 270.392C258.872 272.739 259.704 275.085 260.386 277.432C261.112 279.779 261.474 281.997 261.474 284.088C261.474 286.093 260.984 287.715 260.002 288.952C259.021 290.147 257.826 291 256.418 291.512C255.01 292.024 253.496 292.216 251.874 292.088C250.296 291.96 248.866 291.533 247.586 290.808C246.05 289.997 244.962 288.845 244.322 287.352C243.682 285.816 243.384 284.216 243.426 282.552C243.469 280.845 243.789 279.203 244.386 277.624C244.984 276.003 245.773 274.701 246.754 273.72C247.266 273.208 247.629 272.952 247.842 272.952C248.098 272.909 248.269 272.995 248.354 273.208C248.44 273.379 248.461 273.613 248.418 273.912C248.376 274.168 248.333 274.36 248.29 274.488C247.565 276.237 247.266 277.859 247.394 279.352C247.522 280.845 247.885 282.125 248.482 283.192C249.08 284.259 249.805 285.069 250.658 285.624C251.512 286.179 252.301 286.392 253.026 286.264C253.794 286.136 254.37 285.645 254.754 284.792C255.181 283.939 255.266 282.637 255.01 280.888L254.818 279.608C254.306 276.92 253.474 274.317 252.322 271.8C251.17 269.24 250.04 266.787 248.93 264.44C247.821 262.051 246.904 259.789 246.178 257.656C245.496 255.48 245.325 253.453 245.666 251.576C246.008 250.125 246.69 248.931 247.714 247.992C248.738 247.053 249.89 246.392 251.17 246.008C252.45 245.624 253.752 245.517 255.074 245.688C256.44 245.859 257.634 246.328 258.658 247.096C259.213 247.523 259.576 247.736 259.746 247.736C259.96 247.736 260.322 247.245 260.834 246.264V257.848C260.749 258.445 260.642 258.765 260.514 258.808C260.386 258.851 260.237 258.765 260.066 258.552C259.896 258.296 259.725 257.997 259.554 257.656C259.384 257.272 259.256 256.952 259.17 256.696C258.957 256.056 258.552 255.416 257.954 254.776C257.4 254.093 256.781 253.517 256.098 253.048C255.416 252.579 254.733 252.237 254.05 252.024C253.368 251.811 252.813 251.832 252.386 252.088C251.96 252.301 251.704 252.813 251.618 253.624C251.533 254.392 251.746 255.523 252.258 257.016ZM288.498 255.928C288.498 256.397 288.285 256.653 287.858 256.696C287.474 256.739 287.239 256.504 287.154 255.992C287.069 255.395 287.005 254.84 286.962 254.328C286.919 253.773 286.749 253.304 286.45 252.92C286.151 252.493 285.661 252.173 284.978 251.96C284.338 251.704 283.378 251.576 282.098 251.576V287.416C282.098 288.056 282.311 288.696 282.738 289.336C283.165 289.976 283.57 290.531 283.954 291H274.354C274.738 290.616 275.143 290.104 275.57 289.464C275.997 288.824 276.21 288.205 276.21 287.608V251.576C275.101 251.533 274.205 251.64 273.522 251.896C272.882 252.109 272.391 252.429 272.05 252.856C271.709 253.283 271.474 253.773 271.346 254.328C271.218 254.84 271.133 255.395 271.09 255.992C271.005 256.504 270.77 256.739 270.386 256.696C270.002 256.653 269.81 256.397 269.81 255.928V246.2H288.434V251.576L288.498 255.928ZM308.419 291C308.675 290.787 308.952 290.467 309.251 290.04C309.55 289.613 309.699 289.229 309.699 288.888L309.827 274.808C309.827 273.784 309.528 272.995 308.931 272.44C308.376 271.885 307.736 271.565 307.011 271.48C306.286 271.395 305.603 271.565 304.963 271.992C304.366 272.419 304.067 273.123 304.067 274.104L303.939 288.184C303.939 288.525 304.152 289.016 304.579 289.656C305.006 290.253 305.326 290.701 305.539 291H296.195C296.323 290.872 296.494 290.68 296.707 290.424C296.92 290.168 297.134 289.891 297.347 289.592C297.56 289.293 297.731 289.016 297.859 288.76C298.03 288.461 298.115 288.227 298.115 288.056V249.016C298.115 248.845 298.051 248.632 297.923 248.376C297.795 248.077 297.646 247.8 297.475 247.544C297.304 247.245 297.134 246.989 296.963 246.776C296.792 246.52 296.643 246.328 296.515 246.2L306.691 246.264C308.739 246.392 310.424 246.84 311.747 247.608C313.07 248.333 314.094 249.293 314.819 250.488C315.544 251.64 315.992 252.941 316.163 254.392C316.334 255.843 316.27 257.336 315.971 258.872C315.715 260.408 315.246 261.923 314.563 263.416C313.923 264.867 313.134 266.168 312.195 267.32C312.835 268.216 313.326 268.877 313.667 269.304C314.008 269.731 314.264 270.136 314.435 270.52C314.606 270.904 314.712 271.373 314.755 271.928C314.798 272.44 314.819 273.229 314.819 274.296L315.075 288.504C315.075 288.931 315.246 289.379 315.587 289.848C315.971 290.317 316.291 290.701 316.547 291H308.419ZM304.003 267.128C305.582 266.531 306.862 265.699 307.843 264.632C308.867 263.523 309.614 262.349 310.083 261.112C310.595 259.875 310.851 258.637 310.851 257.4C310.894 256.12 310.723 254.968 310.339 253.944C309.955 252.92 309.379 252.088 308.611 251.448C307.886 250.808 307.011 250.488 305.987 250.488L304.003 250.36V267.128ZM340.02 257.656C339.935 257.827 339.764 257.827 339.508 257.656C339.252 257.485 339.082 257.272 338.996 257.016C338.612 255.736 337.972 254.499 337.076 253.304C336.223 252.109 335.348 251.213 334.452 250.616C333.599 250.019 332.831 249.869 332.148 250.168C331.508 250.467 331.167 251.448 331.124 253.112V264.504C331.508 264.333 331.892 264.163 332.276 263.992C332.66 263.779 333.066 263.651 333.492 263.608C333.962 263.523 334.452 263.544 334.964 263.672C335.476 263.8 336.01 264.077 336.564 264.504V270.264C336.01 269.88 335.476 269.645 334.964 269.56C334.495 269.432 334.026 269.411 333.556 269.496C333.13 269.539 332.703 269.645 332.276 269.816C331.892 269.944 331.508 270.093 331.124 270.264V284.152C331.124 285.987 331.444 287.032 332.084 287.288C332.767 287.501 333.514 287.181 334.324 286.328C335.135 285.432 335.903 284.152 336.628 282.488C337.396 280.781 337.844 278.925 337.972 276.92C338.015 276.579 338.207 276.28 338.548 276.024C338.89 275.768 339.231 275.789 339.572 276.088V291H323.956C324.298 290.659 324.618 290.253 324.916 289.784C325.215 289.315 325.364 288.845 325.364 288.376V249.08C325.364 248.568 325.236 248.056 324.98 247.544C324.724 246.989 324.362 246.541 323.892 246.2H340.02V257.656ZM363.843 257.656C363.758 257.827 363.587 257.827 363.331 257.656C363.075 257.485 362.904 257.272 362.819 257.016C362.435 255.736 361.795 254.499 360.899 253.304C360.046 252.109 359.171 251.213 358.275 250.616C357.422 250.019 356.654 249.869 355.971 250.168C355.331 250.467 354.99 251.448 354.947 253.112V264.504C355.331 264.333 355.715 264.163 356.099 263.992C356.483 263.779 356.888 263.651 357.315 263.608C357.784 263.523 358.275 263.544 358.787 263.672C359.299 263.8 359.832 264.077 360.387 264.504V270.264C359.832 269.88 359.299 269.645 358.787 269.56C358.318 269.432 357.848 269.411 357.379 269.496C356.952 269.539 356.526 269.645 356.099 269.816C355.715 269.944 355.331 270.093 354.947 270.264V284.152C354.947 285.987 355.267 287.032 355.907 287.288C356.59 287.501 357.336 287.181 358.147 286.328C358.958 285.432 359.726 284.152 360.451 282.488C361.219 280.781 361.667 278.925 361.795 276.92C361.838 276.579 362.03 276.28 362.371 276.024C362.712 275.768 363.054 275.789 363.395 276.088V291H347.779C348.12 290.659 348.44 290.253 348.739 289.784C349.038 289.315 349.187 288.845 349.187 288.376V249.08C349.187 248.568 349.059 248.056 348.803 247.544C348.547 246.989 348.184 246.541 347.715 246.2H363.843V257.656ZM390.913 255.928C390.913 256.397 390.7 256.653 390.273 256.696C389.889 256.739 389.654 256.504 389.569 255.992C389.484 255.395 389.42 254.84 389.377 254.328C389.334 253.773 389.164 253.304 388.865 252.92C388.566 252.493 388.076 252.173 387.393 251.96C386.753 251.704 385.793 251.576 384.513 251.576V287.416C384.513 288.056 384.726 288.696 385.153 289.336C385.58 289.976 385.985 290.531 386.369 291H376.769C377.153 290.616 377.558 290.104 377.985 289.464C378.412 288.824 378.625 288.205 378.625 287.608V251.576C377.516 251.533 376.62 251.64 375.937 251.896C375.297 252.109 374.806 252.429 374.465 252.856C374.124 253.283 373.889 253.773 373.761 254.328C373.633 254.84 373.548 255.395 373.505 255.992C373.42 256.504 373.185 256.739 372.801 256.696C372.417 256.653 372.225 256.397 372.225 255.928V246.2H390.849V251.576L390.913 255.928Z" fill="white"/>
<rect id="Rectangle 1" x="231.256" y="265" width="6.01836" height="6.01836" transform="rotate(45 231.256 265)" fill="white"/>
</g>
<g id="barbers">
<path id="barbers_2" d="M108.44 324.904C110.296 329.32 110.712 333.032 109.688 336.04C108.664 339.048 106.472 341.208 103.112 342.52C102.664 342.68 102.152 342.792 101.576 342.856C101 342.92 100.392 342.968 99.752 343C99.112 343 98.456 343 97.784 343C97.144 343 96.52 343 95.912 343C96.168 342.68 96.392 342.312 96.584 341.896C96.808 341.448 96.92 341.032 96.92 340.648V311.464C96.92 311.208 96.76 310.856 96.44 310.408C96.152 309.96 95.912 309.624 95.72 309.4L103.256 309.448C104.792 309.544 106.024 309.992 106.952 310.792C107.88 311.56 108.536 312.52 108.92 313.672C109.336 314.824 109.496 316.056 109.4 317.368C109.304 318.648 109.032 319.848 108.584 320.968C108.136 322.088 107.512 323.032 106.712 323.8C105.912 324.536 105.016 324.904 104.024 324.904H108.44ZM101.288 339.016C102.344 338.6 103.224 338.008 103.928 337.24C104.664 336.44 105.224 335.576 105.608 334.648C105.992 333.72 106.216 332.776 106.28 331.816C106.376 330.824 106.344 329.928 106.184 329.128C106.024 328.328 105.736 327.688 105.32 327.208C104.904 326.696 104.392 326.44 103.784 326.44H101.288V339.016ZM101.24 323.992C102.52 323.32 103.48 322.344 104.12 321.064C104.76 319.784 105.128 318.52 105.224 317.272C105.32 315.992 105.144 314.888 104.696 313.96C104.248 313.032 103.576 312.568 102.68 312.568L101.24 312.52V323.992ZM140.069 343C140.197 342.872 140.341 342.696 140.501 342.472C140.693 342.216 140.773 342.008 140.741 341.848L139.589 335.08C139.525 334.76 139.253 334.6 138.773 334.6C138.325 334.568 137.813 334.632 137.237 334.792C136.693 334.92 136.197 335.112 135.749 335.368C135.301 335.592 135.061 335.784 135.029 335.944L134.501 341.512C134.469 341.672 134.533 341.928 134.693 342.28C134.885 342.6 135.045 342.84 135.173 343H128.549C128.773 342.744 128.965 342.488 129.125 342.232C129.317 341.944 129.445 341.64 129.509 341.32L135.989 311.944C136.085 311.496 136.037 311.064 135.845 310.648C135.653 310.2 135.445 309.784 135.221 309.4H138.773L145.541 341.704C145.573 341.864 145.685 342.088 145.877 342.376C146.101 342.632 146.277 342.84 146.405 343H140.069ZM135.221 332.056C135.861 331.704 136.501 331.48 137.141 331.384C137.813 331.256 138.485 331.176 139.157 331.144L136.997 320.296L135.221 332.056ZM175.422 343C175.614 342.84 175.822 342.6 176.046 342.28C176.27 341.96 176.382 341.672 176.382 341.416L176.478 330.856C176.478 330.088 176.254 329.496 175.806 329.08C175.39 328.664 174.91 328.424 174.366 328.36C173.822 328.296 173.31 328.424 172.83 328.744C172.382 329.064 172.158 329.592 172.158 330.328L172.062 340.888C172.062 341.144 172.222 341.512 172.542 341.992C172.862 342.44 173.102 342.776 173.262 343H166.254C166.35 342.904 166.478 342.76 166.638 342.568C166.798 342.376 166.958 342.168 167.118 341.944C167.278 341.72 167.406 341.512 167.502 341.32C167.63 341.096 167.694 340.92 167.694 340.792V311.512C167.694 311.384 167.646 311.224 167.55 311.032C167.454 310.808 167.342 310.6 167.214 310.408C167.086 310.184 166.958 309.992 166.83 309.832C166.702 309.64 166.59 309.496 166.494 309.4L174.126 309.448C175.662 309.544 176.926 309.88 177.918 310.456C178.91 311 179.678 311.72 180.222 312.616C180.766 313.48 181.102 314.456 181.23 315.544C181.358 316.632 181.31 317.752 181.086 318.904C180.894 320.056 180.542 321.192 180.03 322.312C179.55 323.4 178.958 324.376 178.254 325.24C178.734 325.912 179.102 326.408 179.358 326.728C179.614 327.048 179.806 327.352 179.934 327.64C180.062 327.928 180.142 328.28 180.174 328.696C180.206 329.08 180.222 329.672 180.222 330.472L180.414 341.128C180.414 341.448 180.542 341.784 180.798 342.136C181.086 342.488 181.326 342.776 181.518 343H175.422ZM172.11 325.096C173.294 324.648 174.254 324.024 174.99 323.224C175.758 322.392 176.318 321.512 176.67 320.584C177.054 319.656 177.246 318.728 177.246 317.8C177.278 316.84 177.15 315.976 176.862 315.208C176.574 314.44 176.142 313.816 175.566 313.336C175.022 312.856 174.366 312.616 173.598 312.616L172.11 312.52V325.096ZM214.194 324.904C216.05 329.32 216.466 333.032 215.442 336.04C214.418 339.048 212.226 341.208 208.866 342.52C208.418 342.68 207.906 342.792 207.33 342.856C206.754 342.92 206.146 342.968 205.506 343C204.866 343 204.21 343 203.538 343C202.898 343 202.274 343 201.666 343C201.922 342.68 202.146 342.312 202.338 341.896C202.562 341.448 202.674 341.032 202.674 340.648V311.464C202.674 311.208 202.514 310.856 202.194 310.408C201.906 309.96 201.666 309.624 201.474 309.4L209.01 309.448C210.546 309.544 211.778 309.992 212.706 310.792C213.634 311.56 214.29 312.52 214.674 313.672C215.09 314.824 215.25 316.056 215.154 317.368C215.058 318.648 214.786 319.848 214.338 320.968C213.89 322.088 213.266 323.032 212.466 323.8C211.666 324.536 210.77 324.904 209.778 324.904H214.194ZM207.042 339.016C208.098 338.6 208.978 338.008 209.682 337.24C210.418 336.44 210.978 335.576 211.362 334.648C211.746 333.72 211.97 332.776 212.034 331.816C212.13 330.824 212.098 329.928 211.938 329.128C211.778 328.328 211.49 327.688 211.074 327.208C210.658 326.696 210.146 326.44 209.538 326.44H207.042V339.016ZM206.994 323.992C208.274 323.32 209.234 322.344 209.874 321.064C210.514 319.784 210.882 318.52 210.978 317.272C211.074 315.992 210.898 314.888 210.45 313.96C210.002 313.032 209.33 312.568 208.434 312.568L206.994 312.52V323.992ZM247.805 317.992C247.741 318.12 247.613 318.12 247.421 317.992C247.229 317.864 247.101 317.704 247.037 317.512C246.749 316.552 246.269 315.624 245.597 314.728C244.957 313.832 244.301 313.16 243.629 312.712C242.989 312.264 242.413 312.152 241.901 312.376C241.421 312.6 241.165 313.336 241.133 314.584V323.128C241.421 323 241.709 322.872 241.997 322.744C242.285 322.584 242.589 322.488 242.909 322.456C243.261 322.392 243.629 322.408 244.013 322.504C244.397 322.6 244.797 322.808 245.213 323.128V327.448C244.797 327.16 244.397 326.984 244.013 326.92C243.661 326.824 243.309 326.808 242.957 326.872C242.637 326.904 242.317 326.984 241.997 327.112C241.709 327.208 241.421 327.32 241.133 327.448V337.864C241.133 339.24 241.373 340.024 241.853 340.216C242.365 340.376 242.925 340.136 243.533 339.496C244.141 338.824 244.717 337.864 245.261 336.616C245.837 335.336 246.173 333.944 246.269 332.44C246.301 332.184 246.445 331.96 246.701 331.768C246.957 331.576 247.213 331.592 247.469 331.816V343H235.757C236.013 342.744 236.253 342.44 236.477 342.088C236.701 341.736 236.813 341.384 236.813 341.032V311.56C236.813 311.176 236.717 310.792 236.525 310.408C236.333 309.992 236.061 309.656 235.709 309.4H247.805V317.992ZM277.144 343C277.336 342.84 277.544 342.6 277.768 342.28C277.992 341.96 278.104 341.672 278.104 341.416L278.2 330.856C278.2 330.088 277.976 329.496 277.528 329.08C277.112 328.664 276.632 328.424 276.088 328.36C275.544 328.296 275.032 328.424 274.552 328.744C274.104 329.064 273.88 329.592 273.88 330.328L273.784 340.888C273.784 341.144 273.944 341.512 274.264 341.992C274.584 342.44 274.824 342.776 274.984 343H267.976C268.072 342.904 268.2 342.76 268.36 342.568C268.52 342.376 268.68 342.168 268.84 341.944C269 341.72 269.128 341.512 269.224 341.32C269.352 341.096 269.416 340.92 269.416 340.792V311.512C269.416 311.384 269.368 311.224 269.272 311.032C269.176 310.808 269.064 310.6 268.936 310.408C268.808 310.184 268.68 309.992 268.552 309.832C268.424 309.64 268.312 309.496 268.216 309.4L275.848 309.448C277.384 309.544 278.648 309.88 279.64 310.456C280.632 311 281.4 311.72 281.944 312.616C282.488 313.48 282.824 314.456 282.952 315.544C283.08 316.632 283.032 317.752 282.808 318.904C282.616 320.056 282.264 321.192 281.752 322.312C281.272 323.4 280.68 324.376 279.976 325.24C280.456 325.912 280.824 326.408 281.08 326.728C281.336 327.048 281.528 327.352 281.656 327.64C281.784 327.928 281.864 328.28 281.896 328.696C281.928 329.08 281.944 329.672 281.944 330.472L282.136 341.128C282.136 341.448 282.264 341.784 282.52 342.136C282.808 342.488 283.048 342.776 283.24 343H277.144ZM273.832 325.096C275.016 324.648 275.976 324.024 276.712 323.224C277.48 322.392 278.04 321.512 278.392 320.584C278.776 319.656 278.968 318.728 278.968 317.8C279 316.84 278.872 315.976 278.584 315.208C278.296 314.44 277.864 313.816 277.288 313.336C276.744 312.856 276.088 312.616 275.32 312.616L273.832 312.52V325.096ZM309.821 317.512C310.333 318.984 310.973 320.584 311.741 322.312C312.541 324.008 313.309 325.752 314.045 327.544C314.781 329.304 315.405 331.064 315.917 332.824C316.461 334.584 316.733 336.248 316.733 337.816C316.733 339.32 316.365 340.536 315.629 341.464C314.893 342.36 313.997 343 312.941 343.384C311.885 343.768 310.749 343.912 309.533 343.816C308.349 343.72 307.277 343.4 306.317 342.856C305.165 342.248 304.349 341.384 303.869 340.264C303.389 339.112 303.165 337.912 303.197 336.664C303.229 335.384 303.469 334.152 303.917 332.968C304.365 331.752 304.957 330.776 305.693 330.04C306.077 329.656 306.349 329.464 306.509 329.464C306.701 329.432 306.829 329.496 306.893 329.656C306.957 329.784 306.973 329.96 306.941 330.184C306.909 330.376 306.877 330.52 306.845 330.616C306.301 331.928 306.077 333.144 306.173 334.264C306.269 335.384 306.541 336.344 306.989 337.144C307.437 337.944 307.981 338.552 308.621 338.968C309.261 339.384 309.853 339.544 310.397 339.448C310.973 339.352 311.405 338.984 311.693 338.344C312.013 337.704 312.077 336.728 311.885 335.416L311.741 334.456C311.357 332.44 310.733 330.488 309.869 328.6C309.005 326.68 308.157 324.84 307.325 323.08C306.493 321.288 305.805 319.592 305.261 317.992C304.749 316.36 304.621 314.84 304.877 313.432C305.133 312.344 305.645 311.448 306.413 310.744C307.181 310.04 308.045 309.544 309.005 309.256C309.965 308.968 310.941 308.888 311.933 309.016C312.957 309.144 313.853 309.496 314.621 310.072C315.037 310.392 315.309 310.552 315.437 310.552C315.597 310.552 315.869 310.184 316.253 309.448V318.136C316.189 318.584 316.109 318.824 316.013 318.856C315.917 318.888 315.805 318.824 315.677 318.664C315.549 318.472 315.421 318.248 315.293 317.992C315.165 317.704 315.069 317.464 315.005 317.272C314.845 316.792 314.541 316.312 314.093 315.832C313.677 315.32 313.213 314.888 312.701 314.536C312.189 314.184 311.677 313.928 311.165 313.768C310.653 313.608 310.237 313.624 309.917 313.816C309.597 313.976 309.405 314.36 309.341 314.968C309.277 315.544 309.437 316.392 309.821 317.512Z" fill="#C32121"/>
<g id="arrows">
<path id="right-arrow" d="M392 329.3L336 332.6V326L392 329.3Z" fill="#C32121"/>
<path id="left-arrow" d="M28 329.3L84 326V332.6L28 329.3Z" fill="#C32121"/>
</g>
</g>
</g>
<g id="Background-SVG">
<g id="SVG">
<g id="Logo">
<path id="white-scissors" d="M230.359 163.495L226.755 166.96L226.789 166.995L226.824 167.03L230.359 163.495ZM226.839 137.095L223.303 140.63L230.375 147.701L233.91 144.166L226.839 137.095ZM166.594 97.1718L161.594 97.1685L161.592 99.1841L162.989 100.637L166.594 97.1718ZM166.609 74.3074L170.25 70.8808L161.617 61.7069L161.609 74.304L166.609 74.3074ZM207.411 117.667L203.77 121.093L203.849 121.177L203.932 121.258L207.411 117.667ZM220.277 130.133L216.798 133.724L220.334 137.151L223.815 133.667L220.277 130.133ZM253.209 97.1716L256.746 100.706L258.207 99.2427L258.209 97.1749L253.209 97.1716ZM166.601 85.7396L161.601 85.7363L161.601 85.7363L166.601 85.7396ZM253.216 85.7396L248.216 85.7363L248.216 85.7363L253.216 85.7396ZM253.224 74.3074L258.224 74.3107L258.232 62.2283L249.688 70.7719L253.224 74.3074ZM216.742 103.718L213.206 107.254L220.277 114.325L223.813 110.789L216.742 103.718ZM185.923 144.151L189.458 147.686L196.529 140.615L192.994 137.079L185.923 144.151ZM205.105 154.888L208.641 151.353L201.57 144.282L198.034 147.817L205.105 154.888ZM174.746 167.894L175.747 162.995L175.747 162.995L174.746 167.894ZM193.615 179.75C195.93 178.244 196.586 175.147 195.081 172.832C193.575 170.517 190.478 169.861 188.163 171.367L193.615 179.75ZM249.688 159.944C245.318 164.314 238.247 164.312 233.895 159.959L226.824 167.03C235.09 175.297 248.493 175.281 256.759 167.015L249.688 159.944ZM233.91 144.166C238.28 139.796 245.351 139.798 249.703 144.151L256.774 137.079C248.508 128.813 235.105 128.829 226.839 137.095L233.91 144.166ZM249.703 144.151C254.056 148.503 254.058 155.574 249.688 159.944L256.759 167.015C265.025 158.749 265.041 145.346 256.774 137.079L249.703 144.151ZM233.964 160.029L170.198 93.7064L162.989 100.637L226.755 166.96L233.964 160.029ZM162.968 77.7339L203.77 121.093L211.052 114.24L170.25 70.8808L162.968 77.7339ZM203.932 121.258L216.798 133.724L223.757 126.543L210.89 114.076L203.932 121.258ZM223.815 133.667L256.746 100.706L249.671 93.6377L216.74 126.599L223.815 133.667ZM171.594 97.1751L171.601 85.7429L161.601 85.7363L161.594 97.1685L171.594 97.1751ZM171.601 85.7429L171.609 74.3107L161.609 74.304L161.601 85.7363L171.601 85.7429ZM258.209 97.1749L258.216 85.7429L248.216 85.7363L248.209 97.1684L258.209 97.1749ZM258.216 85.7429L258.224 74.3107L248.224 74.3041L248.216 85.7363L258.216 85.7429ZM249.688 70.7719L216.742 103.718L223.813 110.789L256.759 77.8429L249.688 70.7719ZM192.994 137.079C184.727 128.813 171.324 128.829 163.058 137.095L170.129 144.166C174.499 139.796 181.57 139.798 185.923 144.151L192.994 137.079ZM163.058 137.095C154.792 145.361 154.776 158.764 163.043 167.03L170.114 159.959C165.761 155.607 165.759 148.536 170.129 144.166L163.058 137.095ZM192.978 167.015L205.105 154.888L198.034 147.817L185.907 159.944L192.978 167.015ZM163.043 167.03C166.078 170.066 169.821 171.991 173.745 172.793L175.747 162.995C173.684 162.574 171.721 161.566 170.114 159.959L163.043 167.03ZM173.745 172.793C177.042 173.467 180.468 173.348 183.722 172.437L181.026 162.807C179.306 163.289 177.491 163.352 175.747 162.995L173.745 172.793ZM183.722 172.437C187.116 171.486 190.319 169.674 192.978 167.015L185.907 159.944C184.493 161.358 182.808 162.308 181.026 162.807L183.722 172.437ZM178.591 164.352C177.387 165.745 177.041 167.347 176.998 168.549C176.954 169.747 177.19 170.859 177.484 171.767C178.071 173.583 179.141 175.362 180.41 176.825C181.665 178.272 183.43 179.772 185.627 180.581C187.989 181.451 190.915 181.506 193.615 179.75L188.163 171.367C188.29 171.284 188.509 171.196 188.766 171.177C188.997 171.16 189.115 171.209 189.083 171.198C189.044 171.183 188.902 171.121 188.679 170.952C188.459 170.787 188.212 170.559 187.964 170.273C187.434 169.661 187.111 169.038 186.999 168.691C186.943 168.517 187.002 168.606 186.991 168.912C186.98 169.221 186.875 170.061 186.157 170.891L178.591 164.352Z" fill="white"/>
<g id="red-circle">
<path id="stache" d="M209.703 188.61C206.741 186.379 198.913 186.044 194.47 190.305C186.854 199.537 180.084 197.508 174.478 190.305C174.478 204.184 177.44 209.073 183.152 209.682C192.672 211.508 202.298 204.914 206.106 203.9C207.066 203.644 208.539 203.521 209.703 203.521C210.866 203.521 212.34 203.644 213.299 203.9C217.107 204.914 226.733 211.508 236.254 209.682C241.966 209.073 244.928 204.184 244.928 190.305C239.321 197.508 232.551 199.537 224.935 190.305C220.492 186.044 212.665 186.379 209.703 188.61Z" fill="#C32121"/>
<path id="circle" d="M254.633 197.137C278.593 182.146 294.53 155.521 294.53 125.173C294.53 78.3239 256.552 40.3454 209.703 40.3454C162.854 40.3454 124.876 78.3239 124.876 125.173C124.876 155.521 140.812 182.146 164.773 197.137" stroke="#C42121" stroke-width="8"/>
</g>
</g>
</g>
</g>
</g>
</svg>
