<svg width="372" height="111" viewBox="0 0 372 111" fill="none" xmlns="http://www.w3.org/2000/svg">
  <g id="psb-text" filter="url(#filter0_d_18_29)">
    <g id="text">
      <g id="prentice-street">
        <path id="prentice-street_2"
          d="M17.52 3.264C19.6107 3.392 21.3173 3.86133 22.64 4.672C24.0053 5.44 25.0293 6.44266 25.712 7.68C26.4373 8.91733 26.864 10.304 26.992 11.84C27.12 13.376 27.0133 14.9333 26.672 16.512C26.3307 18.0907 25.776 19.6267 25.008 21.12C24.2827 22.6133 23.3867 23.936 22.32 25.088C21.296 26.1973 20.144 27.0933 18.864 27.776C17.584 28.416 16.2613 28.6933 14.896 28.608L14.704 45.184C14.704 45.5253 14.9173 46.016 15.344 46.656C15.7707 47.2533 16.0907 47.7013 16.304 48H6.96C7.088 47.872 7.25867 47.68 7.472 47.424C7.68533 47.168 7.89867 46.8907 8.112 46.592C8.368 46.2933 8.56 46.016 8.688 45.76C8.85867 45.4613 8.944 45.2267 8.944 45.056V6.016C8.944 5.84533 8.88 5.632 8.752 5.376C8.624 5.07733 8.45333 4.8 8.24 4.544C8.06933 4.24533 7.89867 3.98933 7.728 3.776C7.55733 3.52 7.408 3.328 7.28 3.2L17.52 3.264ZM14.832 24.128C16.4107 23.5307 17.6907 22.6987 18.672 21.632C19.696 20.5227 20.4427 19.3493 20.912 18.112C21.3813 16.8747 21.616 15.6373 21.616 14.4C21.6587 13.12 21.488 11.968 21.104 10.944C20.72 9.92 20.144 9.088 19.376 8.448C18.6507 7.808 17.776 7.488 16.752 7.488L14.832 7.36V24.128ZM45.944 48C46.2 47.7867 46.4773 47.4667 46.776 47.04C47.0747 46.6133 47.224 46.2293 47.224 45.888L47.352 31.808C47.352 30.784 47.0533 29.9947 46.456 29.44C45.9013 28.8853 45.2613 28.5653 44.536 28.48C43.8107 28.3947 43.128 28.5653 42.488 28.992C41.8907 29.4187 41.592 30.1227 41.592 31.104L41.464 45.184C41.464 45.5253 41.6773 46.016 42.104 46.656C42.5307 47.2533 42.8507 47.7013 43.064 48H33.72C33.848 47.872 34.0187 47.68 34.232 47.424C34.4453 47.168 34.6587 46.8907 34.872 46.592C35.0853 46.2933 35.256 46.016 35.384 45.76C35.5547 45.4613 35.64 45.2267 35.64 45.056V6.016C35.64 5.84533 35.576 5.632 35.448 5.376C35.32 5.07733 35.1707 4.8 35 4.544C34.8293 4.24533 34.6587 3.98933 34.488 3.776C34.3173 3.52 34.168 3.328 34.04 3.2L44.216 3.264C46.264 3.392 47.9493 3.84 49.272 4.608C50.5947 5.33333 51.6187 6.29333 52.344 7.488C53.0693 8.64 53.5173 9.94133 53.688 11.392C53.8587 12.8427 53.7947 14.336 53.496 15.872C53.24 17.408 52.7707 18.9227 52.088 20.416C51.448 21.8667 50.6587 23.168 49.72 24.32C50.36 25.216 50.8507 25.8773 51.192 26.304C51.5333 26.7307 51.7893 27.136 51.96 27.52C52.1307 27.904 52.2373 28.3733 52.28 28.928C52.3227 29.44 52.344 30.2293 52.344 31.296L52.6 45.504C52.6 45.9307 52.7707 46.3787 53.112 46.848C53.496 47.3173 53.816 47.7013 54.072 48H45.944ZM41.528 24.128C43.1067 23.5307 44.3867 22.6987 45.368 21.632C46.392 20.5227 47.1387 19.3493 47.608 18.112C48.12 16.8747 48.376 15.6373 48.376 14.4C48.4187 13.12 48.248 11.968 47.864 10.944C47.48 9.92 46.904 9.088 46.136 8.448C45.4107 7.808 44.536 7.488 43.512 7.488L41.528 7.36V24.128ZM77.5455 14.656C77.4602 14.8267 77.2895 14.8267 77.0335 14.656C76.7775 14.4853 76.6068 14.272 76.5215 14.016C76.1375 12.736 75.4975 11.4987 74.6015 10.304C73.7482 9.10933 72.8735 8.21333 71.9775 7.616C71.1242 7.01866 70.3562 6.86933 69.6735 7.168C69.0335 7.46666 68.6922 8.448 68.6495 10.112V21.504C69.0335 21.3333 69.4175 21.1627 69.8015 20.992C70.1855 20.7787 70.5908 20.6507 71.0175 20.608C71.4868 20.5227 71.9775 20.544 72.4895 20.672C73.0015 20.8 73.5348 21.0773 74.0895 21.504V27.264C73.5348 26.88 73.0015 26.6453 72.4895 26.56C72.0202 26.432 71.5508 26.4107 71.0815 26.496C70.6548 26.5387 70.2282 26.6453 69.8015 26.816C69.4175 26.944 69.0335 27.0933 68.6495 27.264V41.152C68.6495 42.9867 68.9695 44.032 69.6095 44.288C70.2922 44.5013 71.0388 44.1813 71.8495 43.328C72.6602 42.432 73.4282 41.152 74.1535 39.488C74.9215 37.7813 75.3695 35.9253 75.4975 33.92C75.5402 33.5787 75.7322 33.28 76.0735 33.024C76.4148 32.768 76.7562 32.7893 77.0975 33.088V48H61.4815C61.8228 47.6587 62.1428 47.2533 62.4415 46.784C62.7402 46.3147 62.8895 45.8453 62.8895 45.376V6.08C62.8895 5.568 62.7615 5.056 62.5055 4.544C62.2495 3.98933 61.8868 3.54133 61.4175 3.2H77.5455V14.656ZM98.232 48L91.704 16.32L92.28 45.632C92.3227 46.0587 92.4933 46.4853 92.792 46.912C93.0907 47.296 93.3893 47.6587 93.688 48H85.24C85.4107 47.7867 85.6667 47.4667 86.008 47.04C86.3493 46.5707 86.52 46.2293 86.52 46.016V5.376C86.52 4.992 86.3707 4.608 86.072 4.224C85.816 3.84 85.5387 3.49866 85.24 3.2H93.048L99.768 33.92L99.128 5.632C99.128 5.248 98.9573 4.82133 98.616 4.352C98.2747 3.88266 97.9333 3.49866 97.592 3.2H106.104C105.763 3.54133 105.485 3.904 105.272 4.288C105.059 4.62933 104.952 5.01333 104.952 5.44V45.696C104.952 46.1227 105.101 46.5493 105.4 46.976C105.741 47.36 106.104 47.7013 106.488 48H98.232ZM132.876 12.928C132.876 13.3973 132.662 13.6533 132.236 13.696C131.852 13.7387 131.617 13.504 131.532 12.992C131.446 12.3947 131.382 11.84 131.34 11.328C131.297 10.7733 131.126 10.304 130.828 9.92C130.529 9.49333 130.038 9.17333 129.356 8.96C128.716 8.704 127.756 8.576 126.476 8.576V44.416C126.476 45.056 126.689 45.696 127.116 46.336C127.542 46.976 127.948 47.5307 128.332 48H118.732C119.116 47.616 119.521 47.104 119.948 46.464C120.374 45.824 120.588 45.2053 120.588 44.608V8.576C119.478 8.53333 118.582 8.64 117.9 8.896C117.26 9.10933 116.769 9.42933 116.428 9.856C116.086 10.2827 115.852 10.7733 115.724 11.328C115.596 11.84 115.51 12.3947 115.468 12.992C115.382 13.504 115.148 13.7387 114.764 13.696C114.38 13.6533 114.188 13.3973 114.188 12.928V3.2H132.812V8.576L132.876 12.928ZM147.675 45.76C147.675 46.144 147.782 46.528 147.995 46.912C148.251 47.296 148.528 47.6587 148.827 48H140.635C140.934 47.7013 141.19 47.36 141.403 46.976C141.659 46.592 141.787 46.208 141.787 45.824V5.568C141.787 5.09866 141.68 4.672 141.467 4.288C141.296 3.904 141.062 3.54133 140.763 3.2H148.763C148.038 3.84 147.675 4.608 147.675 5.504V45.76ZM169.568 39.36C169.654 38.8907 169.846 38.5067 170.144 38.208C170.486 37.9093 170.87 37.952 171.296 38.336C171.296 40.7253 170.934 42.6667 170.208 44.16C169.526 45.6533 168.651 46.7627 167.584 47.488C166.56 48.2133 165.43 48.576 164.192 48.576C162.998 48.6187 161.867 48.32 160.8 47.68C159.734 47.04 158.816 46.1227 158.048 44.928C157.323 43.7333 156.918 42.304 156.832 40.64V10.432C156.96 7.78666 157.75 5.888 159.2 4.736C160.651 3.54133 162.528 2.92266 164.832 2.88C165.43 2.88 166.027 2.96533 166.624 3.136C167.222 3.30666 167.776 3.456 168.288 3.584C168.843 3.712 169.334 3.73333 169.76 3.648C170.187 3.56266 170.571 3.24266 170.912 2.688V14.848C170.827 15.0187 170.635 15.1253 170.336 15.168C170.038 15.2107 169.846 14.976 169.76 14.464C169.504 12.672 168.971 11.328 168.16 10.432C167.392 9.49333 166.582 8.91733 165.728 8.704C164.918 8.49067 164.192 8.59733 163.552 9.024C162.912 9.45066 162.592 10.1333 162.592 11.072V39.872C162.592 41.4933 162.912 42.5387 163.552 43.008C164.235 43.4773 164.982 43.584 165.792 43.328C166.646 43.072 167.435 42.56 168.16 41.792C168.928 41.024 169.398 40.2133 169.568 39.36ZM195.096 14.656C195.01 14.8267 194.84 14.8267 194.584 14.656C194.328 14.4853 194.157 14.272 194.072 14.016C193.688 12.736 193.048 11.4987 192.152 10.304C191.298 9.10933 190.424 8.21333 189.528 7.616C188.674 7.01866 187.906 6.86933 187.224 7.168C186.584 7.46666 186.242 8.448 186.2 10.112V21.504C186.584 21.3333 186.968 21.1627 187.352 20.992C187.736 20.7787 188.141 20.6507 188.568 20.608C189.037 20.5227 189.528 20.544 190.04 20.672C190.552 20.8 191.085 21.0773 191.64 21.504V27.264C191.085 26.88 190.552 26.6453 190.04 26.56C189.57 26.432 189.101 26.4107 188.632 26.496C188.205 26.5387 187.778 26.6453 187.352 26.816C186.968 26.944 186.584 27.0933 186.2 27.264V41.152C186.2 42.9867 186.52 44.032 187.16 44.288C187.842 44.5013 188.589 44.1813 189.4 43.328C190.21 42.432 190.978 41.152 191.704 39.488C192.472 37.7813 192.92 35.9253 193.048 33.92C193.09 33.5787 193.282 33.28 193.624 33.024C193.965 32.768 194.306 32.7893 194.648 33.088V48H179.032C179.373 47.6587 179.693 47.2533 179.992 46.784C180.29 46.3147 180.44 45.8453 180.44 45.376V6.08C180.44 5.568 180.312 5.056 180.056 4.544C179.8 3.98933 179.437 3.54133 178.968 3.2H195.096V14.656ZM230.258 14.016C230.941 15.9787 231.794 18.112 232.818 20.416C233.885 22.6773 234.909 25.0027 235.89 27.392C236.872 29.7387 237.704 32.0853 238.386 34.432C239.112 36.7787 239.474 38.9973 239.474 41.088C239.474 43.0933 238.984 44.7147 238.002 45.952C237.021 47.1467 235.826 48 234.418 48.512C233.01 49.024 231.496 49.216 229.874 49.088C228.296 48.96 226.866 48.5333 225.586 47.808C224.05 46.9973 222.962 45.8453 222.322 44.352C221.682 42.816 221.384 41.216 221.426 39.552C221.469 37.8453 221.789 36.2027 222.386 34.624C222.984 33.0027 223.773 31.7013 224.754 30.72C225.266 30.208 225.629 29.952 225.842 29.952C226.098 29.9093 226.269 29.9947 226.354 30.208C226.44 30.3787 226.461 30.6133 226.418 30.912C226.376 31.168 226.333 31.36 226.29 31.488C225.565 33.2373 225.266 34.8587 225.394 36.352C225.522 37.8453 225.885 39.1253 226.482 40.192C227.08 41.2587 227.805 42.0693 228.658 42.624C229.512 43.1787 230.301 43.392 231.026 43.264C231.794 43.136 232.37 42.6453 232.754 41.792C233.181 40.9387 233.266 39.6373 233.01 37.888L232.818 36.608C232.306 33.92 231.474 31.3173 230.322 28.8C229.17 26.24 228.04 23.7867 226.93 21.44C225.821 19.0507 224.904 16.7893 224.178 14.656C223.496 12.48 223.325 10.4533 223.666 8.576C224.008 7.12533 224.69 5.93066 225.714 4.992C226.738 4.05333 227.89 3.392 229.17 3.008C230.45 2.624 231.752 2.51733 233.074 2.688C234.44 2.85866 235.634 3.328 236.658 4.096C237.213 4.52266 237.576 4.736 237.746 4.736C237.96 4.736 238.322 4.24533 238.834 3.264V14.848C238.749 15.4453 238.642 15.7653 238.514 15.808C238.386 15.8507 238.237 15.7653 238.066 15.552C237.896 15.296 237.725 14.9973 237.554 14.656C237.384 14.272 237.256 13.952 237.17 13.696C236.957 13.056 236.552 12.416 235.954 11.776C235.4 11.0933 234.781 10.5173 234.098 10.048C233.416 9.57866 232.733 9.23733 232.05 9.024C231.368 8.81067 230.813 8.832 230.386 9.088C229.96 9.30133 229.704 9.81333 229.618 10.624C229.533 11.392 229.746 12.5227 230.258 14.016ZM266.498 12.928C266.498 13.3973 266.285 13.6533 265.858 13.696C265.474 13.7387 265.239 13.504 265.154 12.992C265.069 12.3947 265.005 11.84 264.962 11.328C264.919 10.7733 264.749 10.304 264.45 9.92C264.151 9.49333 263.661 9.17333 262.978 8.96C262.338 8.704 261.378 8.576 260.098 8.576V44.416C260.098 45.056 260.311 45.696 260.738 46.336C261.165 46.976 261.57 47.5307 261.954 48H252.354C252.738 47.616 253.143 47.104 253.57 46.464C253.997 45.824 254.21 45.2053 254.21 44.608V8.576C253.101 8.53333 252.205 8.64 251.522 8.896C250.882 9.10933 250.391 9.42933 250.05 9.856C249.709 10.2827 249.474 10.7733 249.346 11.328C249.218 11.84 249.133 12.3947 249.09 12.992C249.005 13.504 248.77 13.7387 248.386 13.696C248.002 13.6533 247.81 13.3973 247.81 12.928V3.2H266.434V8.576L266.498 12.928ZM286.419 48C286.675 47.7867 286.952 47.4667 287.251 47.04C287.55 46.6133 287.699 46.2293 287.699 45.888L287.827 31.808C287.827 30.784 287.528 29.9947 286.931 29.44C286.376 28.8853 285.736 28.5653 285.011 28.48C284.286 28.3947 283.603 28.5653 282.963 28.992C282.366 29.4187 282.067 30.1227 282.067 31.104L281.939 45.184C281.939 45.5253 282.152 46.016 282.579 46.656C283.006 47.2533 283.326 47.7013 283.539 48H274.195C274.323 47.872 274.494 47.68 274.707 47.424C274.92 47.168 275.134 46.8907 275.347 46.592C275.56 46.2933 275.731 46.016 275.859 45.76C276.03 45.4613 276.115 45.2267 276.115 45.056V6.016C276.115 5.84533 276.051 5.632 275.923 5.376C275.795 5.07733 275.646 4.8 275.475 4.544C275.304 4.24533 275.134 3.98933 274.963 3.776C274.792 3.52 274.643 3.328 274.515 3.2L284.691 3.264C286.739 3.392 288.424 3.84 289.747 4.608C291.07 5.33333 292.094 6.29333 292.819 7.488C293.544 8.64 293.992 9.94133 294.163 11.392C294.334 12.8427 294.27 14.336 293.971 15.872C293.715 17.408 293.246 18.9227 292.563 20.416C291.923 21.8667 291.134 23.168 290.195 24.32C290.835 25.216 291.326 25.8773 291.667 26.304C292.008 26.7307 292.264 27.136 292.435 27.52C292.606 27.904 292.712 28.3733 292.755 28.928C292.798 29.44 292.819 30.2293 292.819 31.296L293.075 45.504C293.075 45.9307 293.246 46.3787 293.587 46.848C293.971 47.3173 294.291 47.7013 294.547 48H286.419ZM282.003 24.128C283.582 23.5307 284.862 22.6987 285.843 21.632C286.867 20.5227 287.614 19.3493 288.083 18.112C288.595 16.8747 288.851 15.6373 288.851 14.4C288.894 13.12 288.723 11.968 288.339 10.944C287.955 9.92 287.379 9.088 286.611 8.448C285.886 7.808 285.011 7.488 283.987 7.488L282.003 7.36V24.128ZM318.02 14.656C317.935 14.8267 317.764 14.8267 317.508 14.656C317.252 14.4853 317.082 14.272 316.996 14.016C316.612 12.736 315.972 11.4987 315.076 10.304C314.223 9.10933 313.348 8.21333 312.452 7.616C311.599 7.01866 310.831 6.86933 310.148 7.168C309.508 7.46666 309.167 8.448 309.124 10.112V21.504C309.508 21.3333 309.892 21.1627 310.276 20.992C310.66 20.7787 311.066 20.6507 311.492 20.608C311.962 20.5227 312.452 20.544 312.964 20.672C313.476 20.8 314.01 21.0773 314.564 21.504V27.264C314.01 26.88 313.476 26.6453 312.964 26.56C312.495 26.432 312.026 26.4107 311.556 26.496C311.13 26.5387 310.703 26.6453 310.276 26.816C309.892 26.944 309.508 27.0933 309.124 27.264V41.152C309.124 42.9867 309.444 44.032 310.084 44.288C310.767 44.5013 311.514 44.1813 312.324 43.328C313.135 42.432 313.903 41.152 314.628 39.488C315.396 37.7813 315.844 35.9253 315.972 33.92C316.015 33.5787 316.207 33.28 316.548 33.024C316.89 32.768 317.231 32.7893 317.572 33.088V48H301.956C302.298 47.6587 302.618 47.2533 302.916 46.784C303.215 46.3147 303.364 45.8453 303.364 45.376V6.08C303.364 5.568 303.236 5.056 302.98 4.544C302.724 3.98933 302.362 3.54133 301.892 3.2H318.02V14.656ZM341.843 14.656C341.758 14.8267 341.587 14.8267 341.331 14.656C341.075 14.4853 340.904 14.272 340.819 14.016C340.435 12.736 339.795 11.4987 338.899 10.304C338.046 9.10933 337.171 8.21333 336.275 7.616C335.422 7.01866 334.654 6.86933 333.971 7.168C333.331 7.46666 332.99 8.448 332.947 10.112V21.504C333.331 21.3333 333.715 21.1627 334.099 20.992C334.483 20.7787 334.888 20.6507 335.315 20.608C335.784 20.5227 336.275 20.544 336.787 20.672C337.299 20.8 337.832 21.0773 338.387 21.504V27.264C337.832 26.88 337.299 26.6453 336.787 26.56C336.318 26.432 335.848 26.4107 335.379 26.496C334.952 26.5387 334.526 26.6453 334.099 26.816C333.715 26.944 333.331 27.0933 332.947 27.264V41.152C332.947 42.9867 333.267 44.032 333.907 44.288C334.59 44.5013 335.336 44.1813 336.147 43.328C336.958 42.432 337.726 41.152 338.451 39.488C339.219 37.7813 339.667 35.9253 339.795 33.92C339.838 33.5787 340.03 33.28 340.371 33.024C340.712 32.768 341.054 32.7893 341.395 33.088V48H325.779C326.12 47.6587 326.44 47.2533 326.739 46.784C327.038 46.3147 327.187 45.8453 327.187 45.376V6.08C327.187 5.568 327.059 5.056 326.803 4.544C326.547 3.98933 326.184 3.54133 325.715 3.2H341.843V14.656ZM368.913 12.928C368.913 13.3973 368.7 13.6533 368.273 13.696C367.889 13.7387 367.654 13.504 367.569 12.992C367.484 12.3947 367.42 11.84 367.377 11.328C367.334 10.7733 367.164 10.304 366.865 9.92C366.566 9.49333 366.076 9.17333 365.393 8.96C364.753 8.704 363.793 8.576 362.513 8.576V44.416C362.513 45.056 362.726 45.696 363.153 46.336C363.58 46.976 363.985 47.5307 364.369 48H354.769C355.153 47.616 355.558 47.104 355.985 46.464C356.412 45.824 356.625 45.2053 356.625 44.608V8.576C355.516 8.53333 354.62 8.64 353.937 8.896C353.297 9.10933 352.806 9.42933 352.465 9.856C352.124 10.2827 351.889 10.7733 351.761 11.328C351.633 11.84 351.548 12.3947 351.505 12.992C351.42 13.504 351.185 13.7387 350.801 13.696C350.417 13.6533 350.225 13.3973 350.225 12.928V3.2H368.849V8.576L368.913 12.928Z"
          fill="white" />
        <rect id="diamond" x="209.256" y="22" width="6.01836" height="6.01836" transform="rotate(45 209.256 22)"
          fill="white" />
      </g>
      <g id="barbers">
        <path id="barbers-text"
          d="M86.44 81.904C88.296 86.32 88.712 90.032 87.688 93.04C86.664 96.048 84.472 98.208 81.112 99.52C80.664 99.68 80.152 99.792 79.576 99.856C79 99.92 78.392 99.968 77.752 100C77.112 100 76.456 100 75.784 100C75.144 100 74.52 100 73.912 100C74.168 99.68 74.392 99.312 74.584 98.896C74.808 98.448 74.92 98.032 74.92 97.648V68.464C74.92 68.208 74.76 67.856 74.44 67.408C74.152 66.96 73.912 66.624 73.72 66.4L81.256 66.448C82.792 66.544 84.024 66.992 84.952 67.792C85.88 68.56 86.536 69.52 86.92 70.672C87.336 71.824 87.496 73.056 87.4 74.368C87.304 75.648 87.032 76.848 86.584 77.968C86.136 79.088 85.512 80.032 84.712 80.8C83.912 81.536 83.016 81.904 82.024 81.904H86.44ZM79.288 96.016C80.344 95.6 81.224 95.008 81.928 94.24C82.664 93.44 83.224 92.576 83.608 91.648C83.992 90.72 84.216 89.776 84.28 88.816C84.376 87.824 84.344 86.928 84.184 86.128C84.024 85.328 83.736 84.688 83.32 84.208C82.904 83.696 82.392 83.44 81.784 83.44H79.288V96.016ZM79.24 80.992C80.52 80.32 81.48 79.344 82.12 78.064C82.76 76.784 83.128 75.52 83.224 74.272C83.32 72.992 83.144 71.888 82.696 70.96C82.248 70.032 81.576 69.568 80.68 69.568L79.24 69.52V80.992ZM118.069 100C118.197 99.872 118.341 99.696 118.501 99.472C118.693 99.216 118.773 99.008 118.741 98.848L117.589 92.08C117.525 91.76 117.253 91.6 116.773 91.6C116.325 91.568 115.813 91.632 115.237 91.792C114.693 91.92 114.197 92.112 113.749 92.368C113.301 92.592 113.061 92.784 113.029 92.944L112.501 98.512C112.469 98.672 112.533 98.928 112.693 99.28C112.885 99.6 113.045 99.84 113.173 100H106.549C106.773 99.744 106.965 99.488 107.125 99.232C107.317 98.944 107.445 98.64 107.509 98.32L113.989 68.944C114.085 68.496 114.037 68.064 113.845 67.648C113.653 67.2 113.445 66.784 113.221 66.4H116.773L123.541 98.704C123.573 98.864 123.685 99.088 123.877 99.376C124.101 99.632 124.277 99.84 124.405 100H118.069ZM113.221 89.056C113.861 88.704 114.501 88.48 115.141 88.384C115.813 88.256 116.485 88.176 117.157 88.144L114.997 77.296L113.221 89.056ZM153.422 100C153.614 99.84 153.822 99.6 154.046 99.28C154.27 98.96 154.382 98.672 154.382 98.416L154.478 87.856C154.478 87.088 154.254 86.496 153.806 86.08C153.39 85.664 152.91 85.424 152.366 85.36C151.822 85.296 151.31 85.424 150.83 85.744C150.382 86.064 150.158 86.592 150.158 87.328L150.062 97.888C150.062 98.144 150.222 98.512 150.542 98.992C150.862 99.44 151.102 99.776 151.262 100H144.254C144.35 99.904 144.478 99.76 144.638 99.568C144.798 99.376 144.958 99.168 145.118 98.944C145.278 98.72 145.406 98.512 145.502 98.32C145.63 98.096 145.694 97.92 145.694 97.792V68.512C145.694 68.384 145.646 68.224 145.55 68.032C145.454 67.808 145.342 67.6 145.214 67.408C145.086 67.184 144.958 66.992 144.83 66.832C144.702 66.64 144.59 66.496 144.494 66.4L152.126 66.448C153.662 66.544 154.926 66.88 155.918 67.456C156.91 68 157.678 68.72 158.222 69.616C158.766 70.48 159.102 71.456 159.23 72.544C159.358 73.632 159.31 74.752 159.086 75.904C158.894 77.056 158.542 78.192 158.03 79.312C157.55 80.4 156.958 81.376 156.254 82.24C156.734 82.912 157.102 83.408 157.358 83.728C157.614 84.048 157.806 84.352 157.934 84.64C158.062 84.928 158.142 85.28 158.174 85.696C158.206 86.08 158.222 86.672 158.222 87.472L158.414 98.128C158.414 98.448 158.542 98.784 158.798 99.136C159.086 99.488 159.326 99.776 159.518 100H153.422ZM150.11 82.096C151.294 81.648 152.254 81.024 152.99 80.224C153.758 79.392 154.318 78.512 154.67 77.584C155.054 76.656 155.246 75.728 155.246 74.8C155.278 73.84 155.15 72.976 154.862 72.208C154.574 71.44 154.142 70.816 153.566 70.336C153.022 69.856 152.366 69.616 151.598 69.616L150.11 69.52V82.096ZM192.194 81.904C194.05 86.32 194.466 90.032 193.442 93.04C192.418 96.048 190.226 98.208 186.866 99.52C186.418 99.68 185.906 99.792 185.33 99.856C184.754 99.92 184.146 99.968 183.506 100C182.866 100 182.21 100 181.538 100C180.898 100 180.274 100 179.666 100C179.922 99.68 180.146 99.312 180.338 98.896C180.562 98.448 180.674 98.032 180.674 97.648V68.464C180.674 68.208 180.514 67.856 180.194 67.408C179.906 66.96 179.666 66.624 179.474 66.4L187.01 66.448C188.546 66.544 189.778 66.992 190.706 67.792C191.634 68.56 192.29 69.52 192.674 70.672C193.09 71.824 193.25 73.056 193.154 74.368C193.058 75.648 192.786 76.848 192.338 77.968C191.89 79.088 191.266 80.032 190.466 80.8C189.666 81.536 188.77 81.904 187.778 81.904H192.194ZM185.042 96.016C186.098 95.6 186.978 95.008 187.682 94.24C188.418 93.44 188.978 92.576 189.362 91.648C189.746 90.72 189.97 89.776 190.034 88.816C190.13 87.824 190.098 86.928 189.938 86.128C189.778 85.328 189.49 84.688 189.074 84.208C188.658 83.696 188.146 83.44 187.538 83.44H185.042V96.016ZM184.994 80.992C186.274 80.32 187.234 79.344 187.874 78.064C188.514 76.784 188.882 75.52 188.978 74.272C189.074 72.992 188.898 71.888 188.45 70.96C188.002 70.032 187.33 69.568 186.434 69.568L184.994 69.52V80.992ZM225.805 74.992C225.741 75.12 225.613 75.12 225.421 74.992C225.229 74.864 225.101 74.704 225.037 74.512C224.749 73.552 224.269 72.624 223.597 71.728C222.957 70.832 222.301 70.16 221.629 69.712C220.989 69.264 220.413 69.152 219.901 69.376C219.421 69.6 219.165 70.336 219.133 71.584V80.128C219.421 80 219.709 79.872 219.997 79.744C220.285 79.584 220.589 79.488 220.909 79.456C221.261 79.392 221.629 79.408 222.013 79.504C222.397 79.6 222.797 79.808 223.213 80.128V84.448C222.797 84.16 222.397 83.984 222.013 83.92C221.661 83.824 221.309 83.808 220.957 83.872C220.637 83.904 220.317 83.984 219.997 84.112C219.709 84.208 219.421 84.32 219.133 84.448V94.864C219.133 96.24 219.373 97.024 219.853 97.216C220.365 97.376 220.925 97.136 221.533 96.496C222.141 95.824 222.717 94.864 223.261 93.616C223.837 92.336 224.173 90.944 224.269 89.44C224.301 89.184 224.445 88.96 224.701 88.768C224.957 88.576 225.213 88.592 225.469 88.816V100H213.757C214.013 99.744 214.253 99.44 214.477 99.088C214.701 98.736 214.813 98.384 214.813 98.032V68.56C214.813 68.176 214.717 67.792 214.525 67.408C214.333 66.992 214.061 66.656 213.709 66.4H225.805V74.992ZM255.144 100C255.336 99.84 255.544 99.6 255.768 99.28C255.992 98.96 256.104 98.672 256.104 98.416L256.2 87.856C256.2 87.088 255.976 86.496 255.528 86.08C255.112 85.664 254.632 85.424 254.088 85.36C253.544 85.296 253.032 85.424 252.552 85.744C252.104 86.064 251.88 86.592 251.88 87.328L251.784 97.888C251.784 98.144 251.944 98.512 252.264 98.992C252.584 99.44 252.824 99.776 252.984 100H245.976C246.072 99.904 246.2 99.76 246.36 99.568C246.52 99.376 246.68 99.168 246.84 98.944C247 98.72 247.128 98.512 247.224 98.32C247.352 98.096 247.416 97.92 247.416 97.792V68.512C247.416 68.384 247.368 68.224 247.272 68.032C247.176 67.808 247.064 67.6 246.936 67.408C246.808 67.184 246.68 66.992 246.552 66.832C246.424 66.64 246.312 66.496 246.216 66.4L253.848 66.448C255.384 66.544 256.648 66.88 257.64 67.456C258.632 68 259.4 68.72 259.944 69.616C260.488 70.48 260.824 71.456 260.952 72.544C261.08 73.632 261.032 74.752 260.808 75.904C260.616 77.056 260.264 78.192 259.752 79.312C259.272 80.4 258.68 81.376 257.976 82.24C258.456 82.912 258.824 83.408 259.08 83.728C259.336 84.048 259.528 84.352 259.656 84.64C259.784 84.928 259.864 85.28 259.896 85.696C259.928 86.08 259.944 86.672 259.944 87.472L260.136 98.128C260.136 98.448 260.264 98.784 260.52 99.136C260.808 99.488 261.048 99.776 261.24 100H255.144ZM251.832 82.096C253.016 81.648 253.976 81.024 254.712 80.224C255.48 79.392 256.04 78.512 256.392 77.584C256.776 76.656 256.968 75.728 256.968 74.8C257 73.84 256.872 72.976 256.584 72.208C256.296 71.44 255.864 70.816 255.288 70.336C254.744 69.856 254.088 69.616 253.32 69.616L251.832 69.52V82.096ZM287.821 74.512C288.333 75.984 288.973 77.584 289.741 79.312C290.541 81.008 291.309 82.752 292.045 84.544C292.781 86.304 293.405 88.064 293.917 89.824C294.461 91.584 294.733 93.248 294.733 94.816C294.733 96.32 294.365 97.536 293.629 98.464C292.893 99.36 291.997 100 290.941 100.384C289.885 100.768 288.749 100.912 287.533 100.816C286.349 100.72 285.277 100.4 284.317 99.856C283.165 99.248 282.349 98.384 281.869 97.264C281.389 96.112 281.165 94.912 281.197 93.664C281.229 92.384 281.469 91.152 281.917 89.968C282.365 88.752 282.957 87.776 283.693 87.04C284.077 86.656 284.349 86.464 284.509 86.464C284.701 86.432 284.829 86.496 284.893 86.656C284.957 86.784 284.973 86.96 284.941 87.184C284.909 87.376 284.877 87.52 284.845 87.616C284.301 88.928 284.077 90.144 284.173 91.264C284.269 92.384 284.541 93.344 284.989 94.144C285.437 94.944 285.981 95.552 286.621 95.968C287.261 96.384 287.853 96.544 288.397 96.448C288.973 96.352 289.405 95.984 289.693 95.344C290.013 94.704 290.077 93.728 289.885 92.416L289.741 91.456C289.357 89.44 288.733 87.488 287.869 85.6C287.005 83.68 286.157 81.84 285.325 80.08C284.493 78.288 283.805 76.592 283.261 74.992C282.749 73.36 282.621 71.84 282.877 70.432C283.133 69.344 283.645 68.448 284.413 67.744C285.181 67.04 286.045 66.544 287.005 66.256C287.965 65.968 288.941 65.888 289.933 66.016C290.957 66.144 291.853 66.496 292.621 67.072C293.037 67.392 293.309 67.552 293.437 67.552C293.597 67.552 293.869 67.184 294.253 66.448V75.136C294.189 75.584 294.109 75.824 294.013 75.856C293.917 75.888 293.805 75.824 293.677 75.664C293.549 75.472 293.421 75.248 293.293 74.992C293.165 74.704 293.069 74.464 293.005 74.272C292.845 73.792 292.541 73.312 292.093 72.832C291.677 72.32 291.213 71.888 290.701 71.536C290.189 71.184 289.677 70.928 289.165 70.768C288.653 70.608 288.237 70.624 287.917 70.816C287.597 70.976 287.405 71.36 287.341 71.968C287.277 72.544 287.437 73.392 287.821 74.512Z"
          fill="#C32121" />
        <g id="arrows">
          <path id="right-arrow" d="M370 86.3L314 89.6V83L370 86.3Z" fill="#C32121" />
          <path id="left-arrow" d="M6 86.3L62 83V89.6L6 86.3Z" fill="#C32121" />
        </g>
      </g>
    </g>
  </g>
  <defs>
    <filter id="filter0_d_18_29" x="0" y="0" width="372" height="118" filterUnits="userSpaceOnUse"
      color-interpolation-filters="sRGB">
      <feFlood flood-opacity="0" result="BackgroundImageFix" />
      <feColorMatrix in="SourceAlpha" type="matrix" values="0 0 0 0 0 0 0 0 0 0 0 0 0 0 0 0 0 0 127 0"
        result="hardAlpha" />
      <feOffset dx="-2" dy="6" />
      <feGaussianBlur stdDeviation="2" />
      <feComposite in2="hardAlpha" operator="out" />
      <feColorMatrix type="matrix" values="0 0 0 0 0 0 0 0 0 0 0 0 0 0 0 0 0 0 0.31 0" />
      <feBlend mode="normal" in2="BackgroundImageFix" result="effect1_dropShadow_18_29" />
      <feBlend mode="normal" in="SourceGraphic" in2="effect1_dropShadow_18_29" result="shape" />
    </filter>
  </defs>
</svg>