<svg width="178" height="179" viewBox="0 0 178 179" fill="none" xmlns="http://www.w3.org/2000/svg">
<g id="psb-logo" clip-path="url(#clip0_18_9)" filter="url(#filter0_i_18_9)">
<g id="Logo">
<path id="scissors" d="M109.359 132.495L105.755 135.96L105.789 135.995L105.824 136.03L109.359 132.495ZM105.839 106.095L102.303 109.63L109.375 116.701L112.91 113.166L105.839 106.095ZM45.5937 66.1718L40.5937 66.1685L40.5923 68.1842L41.9893 69.6372L45.5937 66.1718ZM45.6089 43.3074L49.2502 39.8808L40.6173 30.7069L40.6089 43.304L45.6089 43.3074ZM86.4111 86.6668L82.7698 90.0933L82.8489 90.1774L82.9318 90.2577L86.4111 86.6668ZM99.2774 99.1334L95.798 102.724L99.3343 106.151L102.815 102.667L99.2774 99.1334ZM132.209 66.1716L135.746 69.7055L137.207 68.2427L137.209 66.1749L132.209 66.1716ZM45.6013 54.7396L40.6013 54.7363L40.6013 54.7363L45.6013 54.7396ZM132.216 54.7396L127.216 54.7363L127.216 54.7364L132.216 54.7396ZM132.224 43.3074L137.224 43.3107L137.232 31.2283L128.688 39.7719L132.224 43.3074ZM95.7418 72.7182L92.2063 76.2537L99.2774 83.3248L102.813 79.7893L95.7418 72.7182ZM64.9225 113.151L68.4581 116.686L75.5291 109.615L71.9936 106.08L64.9225 113.151ZM84.1052 123.888L87.6408 120.353L80.5697 113.282L77.0342 116.817L84.1052 123.888ZM53.7461 136.894L54.7471 131.995L54.7471 131.995L53.7461 136.894ZM72.6153 148.75C74.9301 147.244 75.5862 144.147 74.0807 141.832C72.5751 139.517 69.478 138.861 67.1631 140.367L72.6153 148.75ZM128.688 128.944C124.318 133.314 117.247 133.312 112.895 128.959L105.824 136.03C114.09 144.297 127.493 144.281 135.759 136.015L128.688 128.944ZM112.91 113.166C117.28 108.796 124.351 108.798 128.703 113.151L135.774 106.079C127.508 97.8127 114.105 97.8285 105.839 106.095L112.91 113.166ZM128.703 113.151C133.056 117.503 133.058 124.574 128.688 128.944L135.759 136.015C144.025 127.749 144.041 114.346 135.774 106.079L128.703 113.151ZM112.964 129.029L49.198 62.7064L41.9893 69.6372L105.755 135.96L112.964 129.029ZM41.9676 46.7339L82.7698 90.0933L90.0524 83.2403L49.2502 39.8808L41.9676 46.7339ZM82.9318 90.2577L95.798 102.724L102.757 95.5425L89.8904 83.0759L82.9318 90.2577ZM102.815 102.667L135.746 69.7055L128.671 62.6378L95.7402 95.5995L102.815 102.667ZM50.5937 66.1751L50.6013 54.7429L40.6013 54.7363L40.5937 66.1685L50.5937 66.1751ZM50.6013 54.743L50.6089 43.3107L40.6089 43.304L40.6013 54.7363L50.6013 54.743ZM137.209 66.1749L137.216 54.7429L127.216 54.7364L127.209 66.1684L137.209 66.1749ZM137.216 54.7429L137.224 43.3107L127.224 43.3041L127.216 54.7363L137.216 54.7429ZM128.688 39.7719L95.7418 72.7182L102.813 79.7893L135.759 46.8429L128.688 39.7719ZM71.9936 106.08C63.7269 97.8128 50.3243 97.8285 42.0581 106.095L49.1292 113.166C53.499 108.796 60.57 108.798 64.9225 113.151L71.9936 106.08ZM42.0581 106.095C33.7919 114.361 33.7762 127.764 42.0429 136.03L49.114 128.959C44.7614 124.607 44.7593 117.536 49.1292 113.166L42.0581 106.095ZM71.9784 136.015L84.1052 123.888L77.0342 116.817L64.9073 128.944L71.9784 136.015ZM42.0429 136.03C45.0785 139.066 48.8213 140.991 52.7451 141.793L54.7471 131.995C52.6837 131.574 50.7209 130.566 49.114 128.959L42.0429 136.03ZM52.7451 141.793C56.0421 142.467 59.4679 142.348 62.7225 141.437L60.0257 131.807C58.3062 132.289 56.4912 132.352 54.7471 131.995L52.7451 141.793ZM62.7225 141.437C66.1163 140.486 69.3192 138.674 71.9784 136.015L64.9073 128.944C63.4932 130.358 61.8084 131.308 60.0257 131.807L62.7225 141.437ZM57.5913 133.352C56.3874 134.745 56.0412 136.347 55.9976 137.549C55.9542 138.747 56.1903 139.859 56.4838 140.767C57.0711 142.583 58.1407 144.362 59.4102 145.825C60.6654 147.272 62.43 148.772 64.6274 149.581C66.9895 150.451 69.9151 150.506 72.6153 148.75L67.1631 140.367C67.2904 140.284 67.509 140.196 67.7657 140.177C67.9969 140.16 68.1152 140.209 68.0834 140.198C68.0437 140.183 67.9021 140.121 67.6787 139.952C67.4594 139.787 67.2125 139.559 66.9643 139.273C66.434 138.661 66.1111 138.038 65.9989 137.691C65.9426 137.517 66.0021 137.606 65.9911 137.912C65.9799 138.221 65.8749 139.061 65.1569 139.891L57.5913 133.352Z" fill="white"/>
<g id="circle-stache">
<path id="stache" d="M88.7028 157.61C85.741 155.379 77.9132 155.044 73.4704 159.305C65.8542 168.537 59.0843 166.508 53.4779 159.305C53.4779 173.184 56.4398 178.073 62.1519 178.682C71.6722 180.508 81.2982 173.914 85.1063 172.9C86.0661 172.644 87.5392 172.521 88.7028 172.521C89.8664 172.521 91.3395 172.644 92.2994 172.9C96.1075 173.914 105.733 180.508 115.254 178.682C120.966 178.073 123.928 173.184 123.928 159.305C118.321 166.508 111.551 168.537 103.935 159.305C99.4924 155.044 91.6647 155.379 88.7028 157.61Z" fill="#C32121"/>
<path id="circle" d="M133.633 166.137C157.593 151.146 173.53 124.521 173.53 94.1727C173.53 47.3239 135.552 9.34538 88.7028 9.34538C41.854 9.34538 3.8755 47.3239 3.8755 94.1727C3.8755 124.521 19.8121 151.146 43.7731 166.137" stroke="#C42121" stroke-width="8"/>
</g>
</g>
</g>
<defs>
<filter id="filter0_i_18_9" x="0" y="0" width="178.81" height="189" filterUnits="userSpaceOnUse" color-interpolation-filters="sRGB">
<feFlood flood-opacity="0" result="BackgroundImageFix"/>
<feBlend mode="normal" in="SourceGraphic" in2="BackgroundImageFix" result="shape"/>
<feColorMatrix in="SourceAlpha" type="matrix" values="0 0 0 0 0 0 0 0 0 0 0 0 0 0 0 0 0 0 127 0" result="hardAlpha"/>
<feOffset dx="1" dy="10"/>
<feGaussianBlur stdDeviation="5"/>
<feComposite in2="hardAlpha" operator="arithmetic" k2="-1" k3="1"/>
<feColorMatrix type="matrix" values="0 0 0 0 0 0 0 0 0 0 0 0 0 0 0 0 0 0 0.35 0"/>
<feBlend mode="normal" in2="shape" result="effect1_innerShadow_18_9"/>
</filter>
<clipPath id="clip0_18_9">
<rect width="177.81" height="179" fill="white"/>
</clipPath>
</defs>
</svg>
